<svg id="layer_1" data-name="layer 1" xmlns="http://www.w3.org/2000/svg" xmlns:xlink="http://www.w3.org/1999/xlink" viewBox="0 0 96 96"><defs><style>.cls-1,.cls-10,.cls-11,.cls-12,.cls-13,.cls-14,.cls-15,.cls-17,.cls-2,.cls-3,.cls-7,.cls-8{stroke:#000;stroke-width:0.48px;}.cls-1,.cls-10,.cls-11,.cls-12,.cls-2{stroke-linecap:round;stroke-linejoin:round;}.cls-2{fill:none;}.cls-13,.cls-14,.cls-15,.cls-17,.cls-3,.cls-7,.cls-8{stroke-miterlimit:10;}.cls-4{clip-path:url(#clip-path);}.cls-16,.cls-5{opacity:0.43;}.cls-6{font-size:5.02px;font-family:STHupo;}.cls-7{fill:#bfd25b;}.cls-8{fill:#f5ba55;}.cls-9{clip-path:url(#clip-path-4);}.cls-10,.cls-17{fill:#e46d2f;}.cls-11,.cls-14{fill:#f1cb9a;}.cls-12{fill:#f1ca9e;}.cls-13{fill:#341b0f;}.cls-15{fill:#d97822;}.cls-16{fill:#fff;}</style><clipPath id="clip-path"><path class="cls-1" d="M78.81,40.36c0,17.13-13.61,31-30.39,31S18,57.49,18,40.36Z"/></clipPath><clipPath id="clip-path-4"><path class="cls-2" d="M78.81,40.36c0,17.13-13.61,31-30.39,31S18,57.49,18,40.36Z"/></clipPath></defs><title>96 96</title><path class="cls-3" d="M41.54,53.4A12.73,12.73,0,0,1,35,51.32a9.8,9.8,0,0,1-4.53-6.6c-.54-3.32.49-5.23,1.44-6.24a5.38,5.38,0,0,1,1.45-1.1l-.42-1.73v0a5.64,5.64,0,0,1,1-4.69A5.13,5.13,0,0,1,37,29.24a5.37,5.37,0,0,1-.16-3.61A9.54,9.54,0,0,1,38,23l.16-.23.25-.11A24.54,24.54,0,0,0,47.74,16a11.62,11.62,0,0,0,2.1-3.45l1.83.46c0,.17-.67,4.31,4.36,6.47a10.3,10.3,0,0,1,5.65,6.38,14.58,14.58,0,0,1,.74,3.53c2.27.89,3.69,2.85,4.11,5.71a13.37,13.37,0,0,1,0,3.73c2.14,1.95,3.2,4,3.16,6.1-.07,3.63-3.39,6.23-4.8,7.34l-.32.26a3.89,3.89,0,0,1-2.49.64h0a36.27,36.27,0,0,1-5.95-.82c-1.27-.24-2.46-.47-3.33-.56-.23,0-.49,0-.76,0a27.58,27.58,0,0,0-5.41.82,39.58,39.58,0,0,1-4.42.78C42,53.39,41.77,53.4,41.54,53.4Z"/><path class="cls-3" d="M50.74,12.84s-1.84,6.28-12,10.68c0,0-2.77,4.08,0,6.59,0,0-5.85-.62-4.93,5.34L34.43,38s-4,.94-3.08,6.59,7.39,8.17,10.77,7.85,7.7-1.88,10.78-1.57S62.44,53,64,51.78s8.92-6.28,1.54-12.56c0,0,1.53-7.53-4-9.11,0,0,0-7.22-5.84-9.73S50.74,12.84,50.74,12.84Z"/><path class="cls-3" d="M48.42,72.33A30.82,30.82,0,0,1,26.26,63a32.1,32.1,0,0,1-9.18-22.61v-1H79.75v1A32.1,32.1,0,0,1,70.57,63,30.78,30.78,0,0,1,48.42,72.33Z"/><path class="cls-3" d="M78.81,40.36c0,17.13-13.61,31-30.39,31S18,57.49,18,40.36Z"/><path d="M78.81,40.36c0,17.13-13.61,31-30.39,31S18,57.49,18,40.36Z"/><g class="cls-4"><rect class="cls-1" x="44.72" y="17.57" width="8.46" height="65.16" transform="translate(99.1 1.2) rotate(90)"/><rect class="cls-1" x="17.32" y="46.89" width="63.27" height="6.53"/><rect class="cls-1" x="45" y="30.12" width="8.46" height="65.16" transform="translate(111.94 13.47) rotate(90)"/><rect class="cls-1" x="17.6" y="59.44" width="63.27" height="6.53"/><path class="cls-1" d="M48.42,72.33A30.82,30.82,0,0,1,26.26,63a32.1,32.1,0,0,1-9.18-22.61v-1H79.75v1A32.1,32.1,0,0,1,70.57,63,30.78,30.78,0,0,1,48.42,72.33Z"/></g><path class="cls-2" d="M78.81,40.36c0,17.13-13.61,31-30.39,31S18,57.49,18,40.36Z"/><path class="cls-1" d="M28.17,69.19l-.06-.38a4.29,4.29,0,0,1,.63-3.09,2.33,2.33,0,0,1,1.85-.82,5.44,5.44,0,0,1,2.43.71c4.45,2.27,8.08,7.9,8.23,8.13l.59.92-4,2Z"/><path class="cls-1" d="M37.93,75.54,29,68.65s-.71-4.35,3.56-2.18,7.86,7.8,7.86,7.8Z"/><path class="cls-1" d="M54.28,74.66l.59-.92c.15-.23,3.78-5.86,8.23-8.13a5.44,5.44,0,0,1,2.43-.71,2.33,2.33,0,0,1,1.85.82A4.29,4.29,0,0,1,68,68.81l-.06.38L58.3,76.67Z"/><path class="cls-1" d="M58.19,75.54l8.89-6.89s.71-4.35-3.56-2.18-7.86,7.8-7.86,7.8Z"/><path class="cls-1" d="M64.05,85.92c-.13,0-12.41-2.52-17.59-2.52a46.2,46.2,0,0,0-12.85,2.12,4.25,4.25,0,0,1-1.38.25h0A2.36,2.36,0,0,1,30.38,85a2.18,2.18,0,0,1-.48-.88l-.1-.4L37.24,72l1.1-2.87.6,0c.05,0,4.55-.26,9.07-.26,2.5,0,4.56.07,6.13.23,2.85.28,3.62.77,4,1.21a1.42,1.42,0,0,1,.35,1.1s-.1,1.15,3.15,5.84c1.79,2.58,3.67,4.91,4,5.21a1.61,1.61,0,0,1,.47,1.27,3.13,3.13,0,0,1-1.28,2l-.34.26Z"/><path class="cls-1" d="M38.09,72.48l-7.27,11.4s.36,1.45,2.49.73a46.48,46.48,0,0,1,13.15-2.18c5.33,0,17.77,2.54,17.77,2.54s1.42-1.09.71-1.81-7.66-9.56-7.38-11.85S39,70.1,39,70.1Z"/><path class="cls-3" d="M47.13,77.42a11.13,11.13,0,0,1-7.5-2.59,17.94,17.94,0,0,1-3.69-4.64,7.28,7.28,0,0,0-1.45-2c-2.4-1.22-3.87-5.16-4-5.61l-.09-.24,0-.25a17.53,17.53,0,0,1,8.73-12.83,21.05,21.05,0,0,1,5.37-2.15L44.4,47a5.13,5.13,0,0,1-1.15-3.26,2.44,2.44,0,0,1,1.09-1.82,2.65,2.65,0,0,1,1.47-.5,2.45,2.45,0,0,1,2.07,1.33,2,2,0,0,1,1.74-.9,5,5,0,0,1,1.58.32,1.91,1.91,0,0,1,1.33,1.39,3.83,3.83,0,0,1-.89,2.83c4.2,1,7.4,4.24,9.43,6.95a26.59,26.59,0,0,1,4.27,8.06c.13.68,0,1.9-2.21,4.58-.91,1.07-1.84,2-2.19,2.34a16.56,16.56,0,0,1-2.86,4.31,14.55,14.55,0,0,1-10.34,4.79Z"/><path class="cls-3" d="M47.71,44.89s-.72-3.62-2.85-2.17,1.42,5.08,1.42,5.08S33.49,49.25,31.36,62.3c0,0,1.42,4,3.55,5.08s3.55,9.43,12.8,9.07,12.44-8.71,12.44-8.71,4.62-4.35,4.26-6.16S58.72,47.8,49.84,47.07c0,0,3.2-3.26,1.06-4S48.77,43.08,47.71,44.89Z"/><path class="cls-3" d="M47.88,77.59a13.49,13.49,0,0,1-10.11-4.84A19.2,19.2,0,0,1,34.58,68l-.08-.19V60.08l.1-.2c.21-.43,2.12-4.16,5.11-4.16,2.27,0,6.44,1.64,8.18,2.69,1.27-.83,4.5-2.69,7.81-2.69a5.53,5.53,0,0,1,5.55,4.4l0,.09v8.36l-.15.24C60.89,69.17,55.42,77.59,47.88,77.59Z"/><path class="cls-3" d="M47.88,59.58s3.91-2.9,7.82-2.9a4.63,4.63,0,0,1,4.62,3.63v8S55,76.63,47.88,76.63c-8.53,0-12.44-9.07-12.44-9.07V60.31s1.78-3.63,4.27-3.63S47.17,58.86,47.88,59.58Z"/><path class="cls-1" d="M44.28,67.05a5.64,5.64,0,0,0-4.84-2.15L39.26,63a7.6,7.6,0,0,1,6.54,2.92Z"/><path class="cls-1" d="M39.35,63.93A6.68,6.68,0,0,1,45,66.47"/><path class="cls-1" d="M50.77,67.05l-1.51-1.16A7.59,7.59,0,0,1,55.8,63l-.19,1.92.09-1-.09,1A5.65,5.65,0,0,0,50.77,67.05Z"/><path class="cls-1" d="M55.7,63.93A6.66,6.66,0,0,0,50,66.47"/><path class="cls-3" d="M51.16,85.18a49.92,49.92,0,0,1-9.64-1.49l-.71-.18V79.85l.16-2H54.8l.07.89c0,.1.18,2.41.18,4.24a2,2,0,0,1-1.46,1.88,6.93,6.93,0,0,1-2.43.33Z"/><path class="cls-3" d="M41.75,79.89v2.86S54.1,85.9,54.1,83c0-1.81-.17-4.17-.17-4.17H41.84Z"/><path class="cls-3" d="M33.59,80.86a1.88,1.88,0,0,1,0-3.75H62.38a1.88,1.88,0,0,1,0,3.75Z"/><rect class="cls-3" x="32.7" y="78.08" width="30.57" height="1.81" rx="0.9"/><path class="cls-3" d="M56.18,36.84a6.15,6.15,0,0,1-5-2.34,11.58,11.58,0,0,1-1.79-3.7c0-.09-.07-.19-.1-.29a8.23,8.23,0,0,1-2.15,3.63,8.45,8.45,0,0,1-6,2.65c-2.25,0-4-1.31-5.18-3.76a12.65,12.65,0,0,1-1-3.27l-.74-1.13V25l.8-.12a49.35,49.35,0,0,1,7.3-.65c3.83,0,5.47.77,6.16,1.35h1.19A19.42,19.42,0,0,1,56,24.64a31.9,31.9,0,0,1,7.7,1l.7.2v3.57l-1,.34a7.39,7.39,0,0,1-1.26,4.5,6.7,6.7,0,0,1-4.88,2.55A9.51,9.51,0,0,1,56.18,36.84Z"/><path class="cls-3" d="M35.13,25.84v2.5l.69,1.07s.7,6.41,5.24,6.41,7.33-4.28,7.33-6.06c0,0,.7-1.07,1.4-.35s1.05,7.12,7.33,6.41,5.24-6.77,5.24-6.77l1-.36V26.56s-7.68-2.14-13.62,0H48.05S46.65,24.06,35.13,25.84Z"/><path class="cls-3" d="M42,35.59h-.3a6,6,0,0,1-4.86-3.7,9.67,9.67,0,0,1-.08-4.58l.13-.63.62-.12a31.07,31.07,0,0,1,5-.51,6,6,0,0,1,3.11.61,4.44,4.44,0,0,1,2.09,2.73,3.08,3.08,0,0,1-.37,2.37C46.45,33.08,44.27,35.59,42,35.59Z"/><path class="cls-3" d="M37.64,27.5s5.71-1.09,7.42,0,2.08,2.7,1.42,3.77-2.75,3.57-4.74,3.38a5,5,0,0,1-4.06-3.09A9.15,9.15,0,0,1,37.64,27.5Z"/><path class="cls-3" d="M56.33,36C54,36,51.85,33.47,51,32.14a3.14,3.14,0,0,1-.37-2.37A4.48,4.48,0,0,1,52.75,27a6.1,6.1,0,0,1,3.11-.6,31.07,31.07,0,0,1,5,.51l.62.12.13.63a9.67,9.67,0,0,1-.08,4.58A6,6,0,0,1,56.64,36l-.31,0Z"/><path class="cls-3" d="M60.66,27.89s-5.72-1.1-7.42,0-2.08,2.7-1.42,3.76,2.75,3.57,4.73,3.38a5,5,0,0,0,4.07-3.09A9.1,9.1,0,0,0,60.66,27.89Z"/><path class="cls-5" d="M38.92,33.38a1.45,1.45,0,0,1-1.43-1.19,1.55,1.55,0,0,1,.2-1.13l2.43-3.8a1.44,1.44,0,0,1,2-.43,1.44,1.44,0,0,1,.63.94,1.5,1.5,0,0,1-.2,1.13l-2.43,3.8A1.46,1.46,0,0,1,38.92,33.38Z"/><path class="cls-5" d="M38.64,32.33h0a.54.54,0,0,1-.15-.74l2.42-3.8a.52.52,0,0,1,.72-.15h0a.54.54,0,0,1,.16.73l-2.43,3.8A.51.51,0,0,1,38.64,32.33Z"/><path class="cls-5" d="M54,34a1.47,1.47,0,0,1-1.44-1.19,1.55,1.55,0,0,1,.21-1.13l2.43-3.8a1.46,1.46,0,0,1,1.23-.68,1.42,1.42,0,0,1,.79.25,1.46,1.46,0,0,1,.64.94,1.51,1.51,0,0,1-.21,1.13l-2.42,3.8A1.46,1.46,0,0,1,54,34Z"/><path class="cls-5" d="M53.69,32.91h0a.54.54,0,0,1-.16-.74L56,28.37a.52.52,0,0,1,.72-.15h0a.53.53,0,0,1,.15.73l-2.42,3.8A.52.52,0,0,1,53.69,32.91Z"/><path class="cls-5" d="M56.15,33.68a1.33,1.33,0,0,1-.69-.21,1.29,1.29,0,0,1-.37-1.78l1.47-2.31a1.25,1.25,0,0,1,1.06-.58,1.29,1.29,0,0,1,.69.2,1.31,1.31,0,0,1,.55.82,1.33,1.33,0,0,1-.18,1l-1.47,2.3A1.26,1.26,0,0,1,56.15,33.68Z"/><path class="cls-5" d="M56,32.66h0a.33.33,0,0,1-.1-.45l1.48-2.3a.31.31,0,0,1,.43-.1h0a.33.33,0,0,1,.1.45l-1.48,2.3A.3.3,0,0,1,56,32.66Z"/><path class="cls-5" d="M40.06,34.73a1.42,1.42,0,0,1-.8-.24,1.54,1.54,0,0,1-.64-1,1.47,1.47,0,0,1,.21-1.12l3.09-4.86a1.43,1.43,0,0,1,2-.44,1.52,1.52,0,0,1,.43,2.07l-3.09,4.86A1.46,1.46,0,0,1,40.06,34.73Z"/><path class="cls-5" d="M39.77,33.68h0a.54.54,0,0,1-.15-.74l3.09-4.86a.52.52,0,0,1,.72-.15h0a.53.53,0,0,1,.15.73l-3.09,4.86A.51.51,0,0,1,39.77,33.68Z"/><path class="cls-3" d="M22.4,29.11a6.08,6.08,0,0,1-4.35-1.84,6.38,6.38,0,0,1,0-8.88l6.42-6.55a6.06,6.06,0,0,1,8.7,0,6.36,6.36,0,0,1,1.41,6.65l2.19,2.85-5.61,1.43-4.41,4.5A6.08,6.08,0,0,1,22.4,29.11Z"/><path class="cls-3" d="M35.12,20.76l-1.63-2.13a5.4,5.4,0,0,0-1-6.11h0a5.14,5.14,0,0,0-7.36,0l-6.42,6.56a5.39,5.39,0,0,0,0,7.51h0a5.14,5.14,0,0,0,7.36,0l4.6-4.7Z"/><text class="cls-6" transform="matrix(0.7, -0.71, 0.7, 0.71, 20.7, 26.38)">wasabi</text><path class="cls-3" d="M41.54,53.4A12.73,12.73,0,0,1,35,51.32a9.8,9.8,0,0,1-4.53-6.6c-.54-3.32.49-5.23,1.44-6.24a5.38,5.38,0,0,1,1.45-1.1l-.42-1.73v0a5.64,5.64,0,0,1,1-4.69A5.13,5.13,0,0,1,37,29.24a5.37,5.37,0,0,1-.16-3.61A9.54,9.54,0,0,1,38,23l.16-.23.25-.11A24.54,24.54,0,0,0,47.74,16a11.62,11.62,0,0,0,2.1-3.45l1.83.46c0,.17-.67,4.31,4.36,6.47a10.3,10.3,0,0,1,5.65,6.38,14.58,14.58,0,0,1,.74,3.53c2.27.89,3.69,2.85,4.11,5.71a13.37,13.37,0,0,1,0,3.73c2.14,1.95,3.2,4,3.16,6.1-.07,3.63-3.39,6.23-4.8,7.34l-.32.26a3.89,3.89,0,0,1-2.49.64h0a36.27,36.27,0,0,1-5.95-.82c-1.27-.24-2.46-.47-3.33-.56-.23,0-.49,0-.76,0a27.58,27.58,0,0,0-5.41.82,39.58,39.58,0,0,1-4.42.78C42,53.39,41.77,53.4,41.54,53.4Z"/><path class="cls-3" d="M50.74,12.84s-1.84,6.28-12,10.68c0,0-2.77,4.08,0,6.59,0,0-5.85-.62-4.93,5.34L34.43,38s-4,.94-3.08,6.59,7.39,8.17,10.77,7.85,7.7-1.88,10.78-1.57S62.44,53,64,51.78s8.92-6.28,1.54-12.56c0,0,1.53-7.53-4-9.11,0,0,0-7.22-5.84-9.73S50.74,12.84,50.74,12.84Z"/><path class="cls-3" d="M48.42,72.33A30.82,30.82,0,0,1,26.26,63a32.1,32.1,0,0,1-9.18-22.61v-1H79.75v1A32.1,32.1,0,0,1,70.57,63,30.78,30.78,0,0,1,48.42,72.33Z"/><path class="cls-3" d="M78.81,40.36c0,17.13-13.61,31-30.39,31S18,57.49,18,40.36Z"/><path d="M78.81,40.36c0,17.13-13.61,31-30.39,31S18,57.49,18,40.36Z"/><g class="cls-4"><rect class="cls-1" x="44.72" y="17.57" width="8.46" height="65.16" transform="translate(99.1 1.2) rotate(90)"/><rect class="cls-1" x="17.32" y="46.89" width="63.27" height="6.53"/><rect class="cls-1" x="45" y="30.12" width="8.46" height="65.16" transform="translate(111.94 13.47) rotate(90)"/><rect class="cls-1" x="17.6" y="59.44" width="63.27" height="6.53"/><path class="cls-1" d="M48.42,72.33A30.82,30.82,0,0,1,26.26,63a32.1,32.1,0,0,1-9.18-22.61v-1H79.75v1A32.1,32.1,0,0,1,70.57,63,30.78,30.78,0,0,1,48.42,72.33Z"/></g><path class="cls-2" d="M78.81,40.36c0,17.13-13.61,31-30.39,31S18,57.49,18,40.36Z"/><path class="cls-1" d="M28.17,69.19l-.06-.38a4.29,4.29,0,0,1,.63-3.09,2.33,2.33,0,0,1,1.85-.82,5.44,5.44,0,0,1,2.43.71c4.45,2.27,8.08,7.9,8.23,8.13l.59.92-4,2Z"/><path class="cls-1" d="M37.93,75.54,29,68.65s-.71-4.35,3.56-2.18,7.86,7.8,7.86,7.8Z"/><path class="cls-1" d="M54.28,74.66l.59-.92c.15-.23,3.78-5.86,8.23-8.13a5.44,5.44,0,0,1,2.43-.71,2.33,2.33,0,0,1,1.85.82A4.29,4.29,0,0,1,68,68.81l-.06.38L58.3,76.67Z"/><path class="cls-1" d="M58.19,75.54l8.89-6.89s.71-4.35-3.56-2.18-7.86,7.8-7.86,7.8Z"/><path class="cls-1" d="M64.05,85.92c-.13,0-12.41-2.52-17.59-2.52a46.2,46.2,0,0,0-12.85,2.12,4.25,4.25,0,0,1-1.38.25h0A2.36,2.36,0,0,1,30.38,85a2.18,2.18,0,0,1-.48-.88l-.1-.4L37.24,72l1.1-2.87.6,0c.05,0,4.55-.26,9.07-.26,2.5,0,4.56.07,6.13.23,2.85.28,3.62.77,4,1.21a1.42,1.42,0,0,1,.35,1.1s-.1,1.15,3.15,5.84c1.79,2.58,3.67,4.91,4,5.21a1.61,1.61,0,0,1,.47,1.27,3.13,3.13,0,0,1-1.28,2l-.34.26Z"/><path class="cls-1" d="M38.09,72.48l-7.27,11.4s.36,1.45,2.49.73a46.48,46.48,0,0,1,13.15-2.18c5.33,0,17.77,2.54,17.77,2.54s1.42-1.09.71-1.81-7.66-9.56-7.38-11.85S39,70.1,39,70.1Z"/><path class="cls-3" d="M47.13,77.42a11.13,11.13,0,0,1-7.5-2.59,17.94,17.94,0,0,1-3.69-4.64,7.28,7.28,0,0,0-1.45-2c-2.4-1.22-3.87-5.16-4-5.61l-.09-.24,0-.25a17.53,17.53,0,0,1,8.73-12.83,21.05,21.05,0,0,1,5.37-2.15L44.4,47a5.13,5.13,0,0,1-1.15-3.26,2.44,2.44,0,0,1,1.09-1.82,2.65,2.65,0,0,1,1.47-.5,2.45,2.45,0,0,1,2.07,1.33,2,2,0,0,1,1.74-.9,5,5,0,0,1,1.58.32,1.91,1.91,0,0,1,1.33,1.39,3.83,3.83,0,0,1-.89,2.83c4.2,1,7.4,4.24,9.43,6.95a26.59,26.59,0,0,1,4.27,8.06c.13.68,0,1.9-2.21,4.58-.91,1.07-1.84,2-2.19,2.34a16.56,16.56,0,0,1-2.86,4.31,14.55,14.55,0,0,1-10.34,4.79Z"/><path class="cls-3" d="M47.71,44.89s-.72-3.62-2.85-2.17,1.42,5.08,1.42,5.08S33.49,49.25,31.36,62.3c0,0,1.42,4,3.55,5.08s3.55,9.43,12.8,9.07,12.44-8.71,12.44-8.71,4.62-4.35,4.26-6.16S58.72,47.8,49.84,47.07c0,0,3.2-3.26,1.06-4S48.77,43.08,47.71,44.89Z"/><path class="cls-3" d="M47.88,77.59a13.49,13.49,0,0,1-10.11-4.84A19.2,19.2,0,0,1,34.58,68l-.08-.19V60.08l.1-.2c.21-.43,2.12-4.16,5.11-4.16,2.27,0,6.44,1.64,8.18,2.69,1.27-.83,4.5-2.69,7.81-2.69a5.53,5.53,0,0,1,5.55,4.4l0,.09v8.36l-.15.24C60.89,69.17,55.42,77.59,47.88,77.59Z"/><path class="cls-3" d="M47.88,59.58s3.91-2.9,7.82-2.9a4.63,4.63,0,0,1,4.62,3.63v8S55,76.63,47.88,76.63c-8.53,0-12.44-9.07-12.44-9.07V60.31s1.78-3.63,4.27-3.63S47.17,58.86,47.88,59.58Z"/><path class="cls-1" d="M44.28,67.05a5.64,5.64,0,0,0-4.84-2.15L39.26,63a7.6,7.6,0,0,1,6.54,2.92Z"/><path class="cls-1" d="M39.35,63.93A6.68,6.68,0,0,1,45,66.47"/><path class="cls-1" d="M50.77,67.05l-1.51-1.16A7.59,7.59,0,0,1,55.8,63l-.19,1.92.09-1-.09,1A5.65,5.65,0,0,0,50.77,67.05Z"/><path class="cls-1" d="M55.7,63.93A6.66,6.66,0,0,0,50,66.47"/><path class="cls-3" d="M51.16,85.18a49.92,49.92,0,0,1-9.64-1.49l-.71-.18V79.85l.16-2H54.8l.07.89c0,.1.18,2.41.18,4.24a2,2,0,0,1-1.46,1.88,6.93,6.93,0,0,1-2.43.33Z"/><path class="cls-3" d="M41.75,79.89v2.86S54.1,85.9,54.1,83c0-1.81-.17-4.17-.17-4.17H41.84Z"/><path class="cls-3" d="M33.59,80.86a1.88,1.88,0,0,1,0-3.75H62.38a1.88,1.88,0,0,1,0,3.75Z"/><rect class="cls-3" x="32.7" y="78.08" width="30.57" height="1.81" rx="0.9"/><path class="cls-3" d="M56.18,36.84a6.15,6.15,0,0,1-5-2.34,11.58,11.58,0,0,1-1.79-3.7c0-.09-.07-.19-.1-.29a8.23,8.23,0,0,1-2.15,3.63,8.45,8.45,0,0,1-6,2.65c-2.25,0-4-1.31-5.18-3.76a12.65,12.65,0,0,1-1-3.27l-.74-1.13V25l.8-.12a49.35,49.35,0,0,1,7.3-.65c3.83,0,5.47.77,6.16,1.35h1.19A19.42,19.42,0,0,1,56,24.64a31.9,31.9,0,0,1,7.7,1l.7.2v3.57l-1,.34a7.39,7.39,0,0,1-1.26,4.5,6.7,6.7,0,0,1-4.88,2.55A9.51,9.51,0,0,1,56.18,36.84Z"/><path class="cls-3" d="M35.13,25.84v2.5l.69,1.07s.7,6.41,5.24,6.41,7.33-4.28,7.33-6.06c0,0,.7-1.07,1.4-.35s1.05,7.12,7.33,6.41,5.24-6.77,5.24-6.77l1-.36V26.56s-7.68-2.14-13.62,0H48.05S46.65,24.06,35.13,25.84Z"/><path class="cls-3" d="M42,35.59h-.3a6,6,0,0,1-4.86-3.7,9.67,9.67,0,0,1-.08-4.58l.13-.63.62-.12a31.07,31.07,0,0,1,5-.51,6,6,0,0,1,3.11.61,4.44,4.44,0,0,1,2.09,2.73,3.08,3.08,0,0,1-.37,2.37C46.45,33.08,44.27,35.59,42,35.59Z"/><path class="cls-3" d="M37.64,27.5s5.71-1.09,7.42,0,2.08,2.7,1.42,3.77-2.75,3.57-4.74,3.38a5,5,0,0,1-4.06-3.09A9.15,9.15,0,0,1,37.64,27.5Z"/><path class="cls-3" d="M56.33,36C54,36,51.85,33.47,51,32.14a3.14,3.14,0,0,1-.37-2.37A4.48,4.48,0,0,1,52.75,27a6.1,6.1,0,0,1,3.11-.6,31.07,31.07,0,0,1,5,.51l.62.12.13.63a9.67,9.67,0,0,1-.08,4.58A6,6,0,0,1,56.64,36l-.31,0Z"/><path class="cls-3" d="M60.66,27.89s-5.72-1.1-7.42,0-2.08,2.7-1.42,3.76,2.75,3.57,4.73,3.38a5,5,0,0,0,4.07-3.09A9.1,9.1,0,0,0,60.66,27.89Z"/><path class="cls-5" d="M38.92,33.38a1.45,1.45,0,0,1-1.43-1.19,1.55,1.55,0,0,1,.2-1.13l2.43-3.8a1.44,1.44,0,0,1,2-.43,1.44,1.44,0,0,1,.63.94,1.5,1.5,0,0,1-.2,1.13l-2.43,3.8A1.46,1.46,0,0,1,38.92,33.38Z"/><path class="cls-5" d="M38.64,32.33h0a.54.54,0,0,1-.15-.74l2.42-3.8a.52.52,0,0,1,.72-.15h0a.54.54,0,0,1,.16.73l-2.43,3.8A.51.51,0,0,1,38.64,32.33Z"/><path class="cls-5" d="M54,34a1.47,1.47,0,0,1-1.44-1.19,1.55,1.55,0,0,1,.21-1.13l2.43-3.8a1.46,1.46,0,0,1,1.23-.68,1.42,1.42,0,0,1,.79.25,1.46,1.46,0,0,1,.64.94,1.51,1.51,0,0,1-.21,1.13l-2.42,3.8A1.46,1.46,0,0,1,54,34Z"/><path class="cls-5" d="M53.69,32.91h0a.54.54,0,0,1-.16-.74L56,28.37a.52.52,0,0,1,.72-.15h0a.53.53,0,0,1,.15.73l-2.42,3.8A.52.52,0,0,1,53.69,32.91Z"/><path class="cls-5" d="M56.15,33.68a1.33,1.33,0,0,1-.69-.21,1.29,1.29,0,0,1-.37-1.78l1.47-2.31a1.25,1.25,0,0,1,1.06-.58,1.29,1.29,0,0,1,.69.2,1.31,1.31,0,0,1,.55.82,1.33,1.33,0,0,1-.18,1l-1.47,2.3A1.26,1.26,0,0,1,56.15,33.68Z"/><path class="cls-5" d="M56,32.66h0a.33.33,0,0,1-.1-.45l1.48-2.3a.31.31,0,0,1,.43-.1h0a.33.33,0,0,1,.1.45l-1.48,2.3A.3.3,0,0,1,56,32.66Z"/><path class="cls-5" d="M40.06,34.73a1.42,1.42,0,0,1-.8-.24,1.54,1.54,0,0,1-.64-1,1.47,1.47,0,0,1,.21-1.12l3.09-4.86a1.43,1.43,0,0,1,2-.44,1.52,1.52,0,0,1,.43,2.07l-3.09,4.86A1.46,1.46,0,0,1,40.06,34.73Z"/><path class="cls-5" d="M39.77,33.68h0a.54.54,0,0,1-.15-.74l3.09-4.86a.52.52,0,0,1,.72-.15h0a.53.53,0,0,1,.15.73l-3.09,4.86A.51.51,0,0,1,39.77,33.68Z"/><path class="cls-3" d="M22.4,29.11a6.08,6.08,0,0,1-4.35-1.84,6.38,6.38,0,0,1,0-8.88l6.42-6.55a6.06,6.06,0,0,1,8.7,0,6.36,6.36,0,0,1,1.41,6.65l2.19,2.85-5.61,1.43-4.41,4.5A6.08,6.08,0,0,1,22.4,29.11Z"/><path class="cls-3" d="M35.12,20.76l-1.63-2.13a5.4,5.4,0,0,0-1-6.11h0a5.14,5.14,0,0,0-7.36,0l-6.42,6.56a5.39,5.39,0,0,0,0,7.51h0a5.14,5.14,0,0,0,7.36,0l4.6-4.7Z"/><text class="cls-6" transform="matrix(0.7, -0.71, 0.7, 0.71, 20.7, 26.38)">wasabi</text><path class="cls-3" d="M41.54,53.4A12.73,12.73,0,0,1,35,51.32a9.8,9.8,0,0,1-4.53-6.6c-.54-3.32.49-5.23,1.44-6.24a5.38,5.38,0,0,1,1.45-1.1l-.42-1.73v0a5.64,5.64,0,0,1,1-4.69A5.13,5.13,0,0,1,37,29.24a5.37,5.37,0,0,1-.16-3.61A9.54,9.54,0,0,1,38,23l.16-.23.25-.11A24.54,24.54,0,0,0,47.74,16a11.62,11.62,0,0,0,2.1-3.45l1.83.46c0,.17-.67,4.31,4.36,6.47a10.3,10.3,0,0,1,5.65,6.38,14.58,14.58,0,0,1,.74,3.53c2.27.89,3.69,2.85,4.11,5.71a13.37,13.37,0,0,1,0,3.73c2.14,1.95,3.2,4,3.16,6.1-.07,3.63-3.39,6.23-4.8,7.34l-.32.26a3.89,3.89,0,0,1-2.49.64h0a36.27,36.27,0,0,1-5.95-.82c-1.27-.24-2.46-.47-3.33-.56-.23,0-.49,0-.76,0a27.58,27.58,0,0,0-5.41.82,39.58,39.58,0,0,1-4.42.78C42,53.39,41.77,53.4,41.54,53.4Z"/><path class="cls-3" d="M50.74,12.84s-1.84,6.28-12,10.68c0,0-2.77,4.08,0,6.59,0,0-5.85-.62-4.93,5.34L34.43,38s-4,.94-3.08,6.59,7.39,8.17,10.77,7.85,7.7-1.88,10.78-1.57S62.44,53,64,51.78s8.92-6.28,1.54-12.56c0,0,1.53-7.53-4-9.11,0,0,0-7.22-5.84-9.73S50.74,12.84,50.74,12.84Z"/><path class="cls-3" d="M48.42,72.33A30.82,30.82,0,0,1,26.26,63a32.1,32.1,0,0,1-9.18-22.61v-1H79.75v1A32.1,32.1,0,0,1,70.57,63,30.78,30.78,0,0,1,48.42,72.33Z"/><path class="cls-3" d="M78.81,40.36c0,17.13-13.61,31-30.39,31S18,57.49,18,40.36Z"/><path d="M78.81,40.36c0,17.13-13.61,31-30.39,31S18,57.49,18,40.36Z"/><g class="cls-4"><rect class="cls-1" x="44.72" y="17.57" width="8.46" height="65.16" transform="translate(99.1 1.2) rotate(90)"/><rect class="cls-1" x="17.32" y="46.89" width="63.27" height="6.53"/><rect class="cls-1" x="45" y="30.12" width="8.46" height="65.16" transform="translate(111.94 13.47) rotate(90)"/><rect class="cls-1" x="17.6" y="59.44" width="63.27" height="6.53"/><path class="cls-1" d="M48.42,72.33A30.82,30.82,0,0,1,26.26,63a32.1,32.1,0,0,1-9.18-22.61v-1H79.75v1A32.1,32.1,0,0,1,70.57,63,30.78,30.78,0,0,1,48.42,72.33Z"/></g><path class="cls-2" d="M78.81,40.36c0,17.13-13.61,31-30.39,31S18,57.49,18,40.36Z"/><path class="cls-1" d="M28.17,69.19l-.06-.38a4.29,4.29,0,0,1,.63-3.09,2.33,2.33,0,0,1,1.85-.82,5.44,5.44,0,0,1,2.43.71c4.45,2.27,8.08,7.9,8.23,8.13l.59.92-4,2Z"/><path class="cls-1" d="M37.93,75.54,29,68.65s-.71-4.35,3.56-2.18,7.86,7.8,7.86,7.8Z"/><path class="cls-1" d="M54.28,74.66l.59-.92c.15-.23,3.78-5.86,8.23-8.13a5.44,5.44,0,0,1,2.43-.71,2.33,2.33,0,0,1,1.85.82A4.29,4.29,0,0,1,68,68.81l-.06.38L58.3,76.67Z"/><path class="cls-1" d="M58.19,75.54l8.89-6.89s.71-4.35-3.56-2.18-7.86,7.8-7.86,7.8Z"/><path class="cls-1" d="M64.05,85.92c-.13,0-12.41-2.52-17.59-2.52a46.2,46.2,0,0,0-12.85,2.12,4.25,4.25,0,0,1-1.38.25h0A2.36,2.36,0,0,1,30.38,85a2.18,2.18,0,0,1-.48-.88l-.1-.4L37.24,72l1.1-2.87.6,0c.05,0,4.55-.26,9.07-.26,2.5,0,4.56.07,6.13.23,2.85.28,3.62.77,4,1.21a1.42,1.42,0,0,1,.35,1.1s-.1,1.15,3.15,5.84c1.79,2.58,3.67,4.91,4,5.21a1.61,1.61,0,0,1,.47,1.27,3.13,3.13,0,0,1-1.28,2l-.34.26Z"/><path class="cls-1" d="M38.09,72.48l-7.27,11.4s.36,1.45,2.49.73a46.48,46.48,0,0,1,13.15-2.18c5.33,0,17.77,2.54,17.77,2.54s1.42-1.09.71-1.81-7.66-9.56-7.38-11.85S39,70.1,39,70.1Z"/><path class="cls-3" d="M47.13,77.42a11.13,11.13,0,0,1-7.5-2.59,17.94,17.94,0,0,1-3.69-4.64,7.28,7.28,0,0,0-1.45-2c-2.4-1.22-3.87-5.16-4-5.61l-.09-.24,0-.25a17.53,17.53,0,0,1,8.73-12.83,21.05,21.05,0,0,1,5.37-2.15L44.4,47a5.13,5.13,0,0,1-1.15-3.26,2.44,2.44,0,0,1,1.09-1.82,2.65,2.65,0,0,1,1.47-.5,2.45,2.45,0,0,1,2.07,1.33,2,2,0,0,1,1.74-.9,5,5,0,0,1,1.58.32,1.91,1.91,0,0,1,1.33,1.39,3.83,3.83,0,0,1-.89,2.83c4.2,1,7.4,4.24,9.43,6.95a26.59,26.59,0,0,1,4.27,8.06c.13.68,0,1.9-2.21,4.58-.91,1.07-1.84,2-2.19,2.34a16.56,16.56,0,0,1-2.86,4.31,14.55,14.55,0,0,1-10.34,4.79Z"/><path class="cls-3" d="M47.71,44.89s-.72-3.62-2.85-2.17,1.42,5.08,1.42,5.08S33.49,49.25,31.36,62.3c0,0,1.42,4,3.55,5.08s3.55,9.43,12.8,9.07,12.44-8.71,12.44-8.71,4.62-4.35,4.26-6.16S58.72,47.8,49.84,47.07c0,0,3.2-3.26,1.06-4S48.77,43.08,47.71,44.89Z"/><path class="cls-3" d="M47.88,77.59a13.49,13.49,0,0,1-10.11-4.84A19.2,19.2,0,0,1,34.58,68l-.08-.19V60.08l.1-.2c.21-.43,2.12-4.16,5.11-4.16,2.27,0,6.44,1.64,8.18,2.69,1.27-.83,4.5-2.69,7.81-2.69a5.53,5.53,0,0,1,5.55,4.4l0,.09v8.36l-.15.24C60.89,69.17,55.42,77.59,47.88,77.59Z"/><path class="cls-3" d="M47.88,59.58s3.91-2.9,7.82-2.9a4.63,4.63,0,0,1,4.62,3.63v8S55,76.63,47.88,76.63c-8.53,0-12.44-9.07-12.44-9.07V60.31s1.78-3.63,4.27-3.63S47.17,58.86,47.88,59.58Z"/><path class="cls-1" d="M44.28,67.05a5.64,5.64,0,0,0-4.84-2.15L39.26,63a7.6,7.6,0,0,1,6.54,2.92Z"/><path class="cls-1" d="M39.35,63.93A6.68,6.68,0,0,1,45,66.47"/><path class="cls-1" d="M50.77,67.05l-1.51-1.16A7.59,7.59,0,0,1,55.8,63l-.19,1.92.09-1-.09,1A5.65,5.65,0,0,0,50.77,67.05Z"/><path class="cls-1" d="M55.7,63.93A6.66,6.66,0,0,0,50,66.47"/><path class="cls-3" d="M51.16,85.18a49.92,49.92,0,0,1-9.64-1.49l-.71-.18V79.85l.16-2H54.8l.07.89c0,.1.18,2.41.18,4.24a2,2,0,0,1-1.46,1.88,6.93,6.93,0,0,1-2.43.33Z"/><path class="cls-3" d="M41.75,79.89v2.86S54.1,85.9,54.1,83c0-1.81-.17-4.17-.17-4.17H41.84Z"/><path class="cls-3" d="M33.59,80.86a1.88,1.88,0,0,1,0-3.75H62.38a1.88,1.88,0,0,1,0,3.75Z"/><rect class="cls-3" x="32.7" y="78.08" width="30.57" height="1.81" rx="0.9"/><path class="cls-3" d="M56.18,36.84a6.15,6.15,0,0,1-5-2.34,11.58,11.58,0,0,1-1.79-3.7c0-.09-.07-.19-.1-.29a8.23,8.23,0,0,1-2.15,3.63,8.45,8.45,0,0,1-6,2.65c-2.25,0-4-1.31-5.18-3.76a12.65,12.65,0,0,1-1-3.27l-.74-1.13V25l.8-.12a49.35,49.35,0,0,1,7.3-.65c3.83,0,5.47.77,6.16,1.35h1.19A19.42,19.42,0,0,1,56,24.64a31.9,31.9,0,0,1,7.7,1l.7.2v3.57l-1,.34a7.39,7.39,0,0,1-1.26,4.5,6.7,6.7,0,0,1-4.88,2.55A9.51,9.51,0,0,1,56.18,36.84Z"/><path class="cls-3" d="M35.13,25.84v2.5l.69,1.07s.7,6.41,5.24,6.41,7.33-4.28,7.33-6.06c0,0,.7-1.07,1.4-.35s1.05,7.12,7.33,6.41,5.24-6.77,5.24-6.77l1-.36V26.56s-7.68-2.14-13.62,0H48.05S46.65,24.06,35.13,25.84Z"/><path class="cls-3" d="M42,35.59h-.3a6,6,0,0,1-4.86-3.7,9.67,9.67,0,0,1-.08-4.58l.13-.63.62-.12a31.07,31.07,0,0,1,5-.51,6,6,0,0,1,3.11.61,4.44,4.44,0,0,1,2.09,2.73,3.08,3.08,0,0,1-.37,2.37C46.45,33.08,44.27,35.59,42,35.59Z"/><path class="cls-3" d="M37.64,27.5s5.71-1.09,7.42,0,2.08,2.7,1.42,3.77-2.75,3.57-4.74,3.38a5,5,0,0,1-4.06-3.09A9.15,9.15,0,0,1,37.64,27.5Z"/><path class="cls-3" d="M56.33,36C54,36,51.85,33.47,51,32.14a3.14,3.14,0,0,1-.37-2.37A4.48,4.48,0,0,1,52.75,27a6.1,6.1,0,0,1,3.11-.6,31.07,31.07,0,0,1,5,.51l.62.12.13.63a9.67,9.67,0,0,1-.08,4.58A6,6,0,0,1,56.64,36l-.31,0Z"/><path class="cls-3" d="M60.66,27.89s-5.72-1.1-7.42,0-2.08,2.7-1.42,3.76,2.75,3.57,4.73,3.38a5,5,0,0,0,4.07-3.09A9.1,9.1,0,0,0,60.66,27.89Z"/><path class="cls-5" d="M38.92,33.38a1.45,1.45,0,0,1-1.43-1.19,1.55,1.55,0,0,1,.2-1.13l2.43-3.8a1.44,1.44,0,0,1,2-.43,1.44,1.44,0,0,1,.63.94,1.5,1.5,0,0,1-.2,1.13l-2.43,3.8A1.46,1.46,0,0,1,38.92,33.38Z"/><path class="cls-5" d="M38.64,32.33h0a.54.54,0,0,1-.15-.74l2.42-3.8a.52.52,0,0,1,.72-.15h0a.54.54,0,0,1,.16.73l-2.43,3.8A.51.51,0,0,1,38.64,32.33Z"/><path class="cls-5" d="M54,34a1.47,1.47,0,0,1-1.44-1.19,1.55,1.55,0,0,1,.21-1.13l2.43-3.8a1.46,1.46,0,0,1,1.23-.68,1.42,1.42,0,0,1,.79.25,1.46,1.46,0,0,1,.64.94,1.51,1.51,0,0,1-.21,1.13l-2.42,3.8A1.46,1.46,0,0,1,54,34Z"/><path class="cls-5" d="M53.69,32.91h0a.54.54,0,0,1-.16-.74L56,28.37a.52.52,0,0,1,.72-.15h0a.53.53,0,0,1,.15.73l-2.42,3.8A.52.52,0,0,1,53.69,32.91Z"/><path class="cls-5" d="M56.15,33.68a1.33,1.33,0,0,1-.69-.21,1.29,1.29,0,0,1-.37-1.78l1.47-2.31a1.25,1.25,0,0,1,1.06-.58,1.29,1.29,0,0,1,.69.2,1.31,1.31,0,0,1,.55.82,1.33,1.33,0,0,1-.18,1l-1.47,2.3A1.26,1.26,0,0,1,56.15,33.68Z"/><path class="cls-5" d="M56,32.66h0a.33.33,0,0,1-.1-.45l1.48-2.3a.31.31,0,0,1,.43-.1h0a.33.33,0,0,1,.1.45l-1.48,2.3A.3.3,0,0,1,56,32.66Z"/><path class="cls-5" d="M40.06,34.73a1.42,1.42,0,0,1-.8-.24,1.54,1.54,0,0,1-.64-1,1.47,1.47,0,0,1,.21-1.12l3.09-4.86a1.43,1.43,0,0,1,2-.44,1.52,1.52,0,0,1,.43,2.07l-3.09,4.86A1.46,1.46,0,0,1,40.06,34.73Z"/><path class="cls-5" d="M39.77,33.68h0a.54.54,0,0,1-.15-.74l3.09-4.86a.52.52,0,0,1,.72-.15h0a.53.53,0,0,1,.15.73l-3.09,4.86A.51.51,0,0,1,39.77,33.68Z"/><path class="cls-3" d="M22.4,29.11a6.08,6.08,0,0,1-4.35-1.84,6.38,6.38,0,0,1,0-8.88l6.42-6.55a6.06,6.06,0,0,1,8.7,0,6.36,6.36,0,0,1,1.41,6.65l2.19,2.85-5.61,1.43-4.41,4.5A6.08,6.08,0,0,1,22.4,29.11Z"/><path class="cls-3" d="M35.12,20.76l-1.63-2.13a5.4,5.4,0,0,0-1-6.11h0a5.14,5.14,0,0,0-7.36,0l-6.42,6.56a5.39,5.39,0,0,0,0,7.51h0a5.14,5.14,0,0,0,7.36,0l4.6-4.7Z"/><text class="cls-6" transform="matrix(0.7, -0.71, 0.7, 0.71, 20.7, 26.38)">wasabi</text><path class="cls-1" d="M49.23,39.28a2.49,2.49,0,0,1-2.46-2.51h1.89a.58.58,0,0,0,.57.58,1.43,1.43,0,0,0,.58-.71.73.73,0,0,0,0,.13h1.89A2.89,2.89,0,0,1,49.23,39.28Z"/><path class="cls-1" d="M50.74,36.77c0,.34-.67,1.54-1.51,1.54a1.52,1.52,0,0,1-1.51-1.54"/><path class="cls-7" d="M50.74,12.84s-1.84,6.28-12,10.68c0,0-2.77,4.08,0,6.59,0,0-5.85-.62-4.93,5.34L34.43,38s-4,.94-3.08,6.59,7.39,8.17,10.77,7.85,7.7-1.88,10.78-1.57S62.44,53,64,51.78s8.92-6.28,1.54-12.56c0,0,1.53-7.53-4-9.11,0,0,0-7.22-5.84-9.73S50.74,12.84,50.74,12.84Z"/><path class="cls-8" d="M78.81,40.36c0,17.13-13.61,31-30.39,31S18,57.49,18,40.36Z"/><g class="cls-9"><rect class="cls-10" x="17.32" y="46.89" width="63.27" height="6.53"/><rect class="cls-10" x="17.6" y="59.44" width="63.27" height="6.53"/></g><path class="cls-2" d="M78.81,40.36c0,17.13-13.61,31-30.39,31S18,57.49,18,40.36Z"/><path class="cls-11" d="M37.93,75.54,29,68.65s-.71-4.35,3.56-2.18,7.86,7.8,7.86,7.8Z"/><path class="cls-11" d="M58.19,75.54l8.89-6.89s.71-4.35-3.56-2.18-7.86,7.8-7.86,7.8Z"/><path class="cls-12" d="M38.09,72.48l-7.27,11.4s.36,1.45,2.49.73a46.48,46.48,0,0,1,13.15-2.18c5.33,0,17.77,2.54,17.77,2.54s1.42-1.09.71-1.81-7.66-9.56-7.38-11.85S39,70.1,39,70.1Z"/><path class="cls-13" d="M47.71,44.89s-.72-3.62-2.85-2.17,1.42,5.08,1.42,5.08S33.49,49.25,31.36,62.3c0,0,1.42,4,3.55,5.08s3.55,9.43,12.8,9.07,12.44-8.71,12.44-8.71,4.62-4.35,4.26-6.16S58.72,47.8,49.84,47.07c0,0,3.2-3.26,1.06-4S48.77,43.08,47.71,44.89Z"/><path class="cls-14" d="M47.88,59.58s3.91-2.9,7.82-2.9a4.63,4.63,0,0,1,4.62,3.63v8S55,76.63,47.88,76.63c-8.53,0-12.44-9.07-12.44-9.07V60.31s1.78-3.63,4.27-3.63S47.17,58.86,47.88,59.58Z"/><path class="cls-1" d="M39.35,63.93A6.68,6.68,0,0,1,45,66.47"/><path class="cls-1" d="M55.7,63.93A6.66,6.66,0,0,0,50,66.47"/><path class="cls-13" d="M41.75,79.89v2.86S54.1,85.9,54.1,83c0-1.81-.17-4.17-.17-4.17H41.84Z"/><rect class="cls-13" x="32.7" y="78.08" width="30.57" height="1.81" rx="0.9"/><path class="cls-15" d="M35.13,25.84v2.5l.69,1.07s.7,6.41,5.24,6.41,7.33-4.28,7.33-6.06c0,0,.7-1.07,1.4-.35s1.05,7.12,7.33,6.41,5.24-6.77,5.24-6.77l1-.36V26.56s-7.68-2.14-13.62,0H48.05S46.65,24.06,35.13,25.84Z"/><path class="cls-3" d="M37.64,27.5s5.71-1.09,7.42,0,2.08,2.7,1.42,3.77-2.75,3.57-4.74,3.38a5,5,0,0,1-4.06-3.09A9.15,9.15,0,0,1,37.64,27.5Z"/><path class="cls-3" d="M60.66,27.89s-5.72-1.1-7.42,0-2.08,2.7-1.42,3.76,2.75,3.57,4.73,3.38a5,5,0,0,0,4.07-3.09A9.1,9.1,0,0,0,60.66,27.89Z"/><path class="cls-16" d="M38.64,32.33h0a.54.54,0,0,1-.15-.74l2.42-3.8a.52.52,0,0,1,.72-.15h0a.54.54,0,0,1,.16.73l-2.43,3.8A.51.51,0,0,1,38.64,32.33Z"/><path class="cls-16" d="M53.69,32.91h0a.54.54,0,0,1-.16-.74L56,28.37a.52.52,0,0,1,.72-.15h0a.53.53,0,0,1,.15.73l-2.42,3.8A.52.52,0,0,1,53.69,32.91Z"/><path class="cls-16" d="M56,32.66h0a.33.33,0,0,1-.1-.45l1.48-2.3a.31.31,0,0,1,.43-.1h0a.33.33,0,0,1,.1.45l-1.48,2.3A.3.3,0,0,1,56,32.66Z"/><path class="cls-16" d="M39.77,33.68h0a.54.54,0,0,1-.15-.74l3.09-4.86a.52.52,0,0,1,.72-.15h0a.53.53,0,0,1,.15.73l-3.09,4.86A.51.51,0,0,1,39.77,33.68Z"/><path class="cls-17" d="M35.12,20.76l-1.63-2.13a5.4,5.4,0,0,0-1-6.11h0a5.14,5.14,0,0,0-7.36,0l-6.42,6.56a5.39,5.39,0,0,0,0,7.51h0a5.14,5.14,0,0,0,7.36,0l4.6-4.7Z"/><text class="cls-6" transform="matrix(0.7, -0.71, 0.7, 0.71, 20.7, 26.38)">wasabi</text><path class="cls-7" d="M50.74,12.84s-1.84,6.28-12,10.68c0,0-2.77,4.08,0,6.59,0,0-5.85-.62-4.93,5.34L34.43,38s-4,.94-3.08,6.59,7.39,8.17,10.77,7.85,7.7-1.88,10.78-1.57S62.44,53,64,51.78s8.92-6.28,1.54-12.56c0,0,1.53-7.53-4-9.11,0,0,0-7.22-5.84-9.73S50.74,12.84,50.74,12.84Z"/><path class="cls-8" d="M78.81,40.36c0,17.13-13.61,31-30.39,31S18,57.49,18,40.36Z"/><g class="cls-9"><rect class="cls-10" x="17.32" y="46.89" width="63.27" height="6.53"/><rect class="cls-10" x="17.6" y="59.44" width="63.27" height="6.53"/></g><path class="cls-2" d="M78.81,40.36c0,17.13-13.61,31-30.39,31S18,57.49,18,40.36Z"/><path class="cls-11" d="M37.93,75.54,29,68.65s-.71-4.35,3.56-2.18,7.86,7.8,7.86,7.8Z"/><path class="cls-11" d="M58.19,75.54l8.89-6.89s.71-4.35-3.56-2.18-7.86,7.8-7.86,7.8Z"/><path class="cls-12" d="M38.09,72.48l-7.27,11.4s.36,1.45,2.49.73a46.48,46.48,0,0,1,13.15-2.18c5.33,0,17.77,2.54,17.77,2.54s1.42-1.09.71-1.81-7.66-9.56-7.38-11.85S39,70.1,39,70.1Z"/><path class="cls-13" d="M47.71,44.89s-.72-3.62-2.85-2.17,1.42,5.08,1.42,5.08S33.49,49.25,31.36,62.3c0,0,1.42,4,3.55,5.08s3.55,9.43,12.8,9.07,12.44-8.71,12.44-8.71,4.62-4.35,4.26-6.16S58.72,47.8,49.84,47.07c0,0,3.2-3.26,1.06-4S48.77,43.08,47.71,44.89Z"/><path class="cls-14" d="M47.88,59.58s3.91-2.9,7.82-2.9a4.63,4.63,0,0,1,4.62,3.63v8S55,76.63,47.88,76.63c-8.53,0-12.44-9.07-12.44-9.07V60.31s1.78-3.63,4.27-3.63S47.17,58.86,47.88,59.58Z"/><path class="cls-1" d="M39.35,63.93A6.68,6.68,0,0,1,45,66.47"/><path class="cls-1" d="M55.7,63.93A6.66,6.66,0,0,0,50,66.47"/><path class="cls-13" d="M41.75,79.89v2.86S54.1,85.9,54.1,83c0-1.81-.17-4.17-.17-4.17H41.84Z"/><rect class="cls-13" x="32.7" y="78.08" width="30.57" height="1.81" rx="0.9"/><path class="cls-15" d="M35.13,25.84v2.5l.69,1.07s.7,6.41,5.24,6.41,7.33-4.28,7.33-6.06c0,0,.7-1.07,1.4-.35s1.05,7.12,7.33,6.41,5.24-6.77,5.24-6.77l1-.36V26.56s-7.68-2.14-13.62,0H48.05S46.65,24.06,35.13,25.84Z"/><path class="cls-3" d="M37.64,27.5s5.71-1.09,7.42,0,2.08,2.7,1.42,3.77-2.75,3.57-4.74,3.38a5,5,0,0,1-4.06-3.09A9.15,9.15,0,0,1,37.64,27.5Z"/><path class="cls-3" d="M60.66,27.89s-5.72-1.1-7.42,0-2.08,2.7-1.42,3.76,2.75,3.57,4.73,3.38a5,5,0,0,0,4.07-3.09A9.1,9.1,0,0,0,60.66,27.89Z"/><path class="cls-16" d="M38.64,32.33h0a.54.54,0,0,1-.15-.74l2.42-3.8a.52.52,0,0,1,.72-.15h0a.54.54,0,0,1,.16.73l-2.43,3.8A.51.51,0,0,1,38.64,32.33Z"/><path class="cls-16" d="M53.69,32.91h0a.54.54,0,0,1-.16-.74L56,28.37a.52.52,0,0,1,.72-.15h0a.53.53,0,0,1,.15.73l-2.42,3.8A.52.52,0,0,1,53.69,32.91Z"/><path class="cls-16" d="M56,32.66h0a.33.33,0,0,1-.1-.45l1.48-2.3a.31.31,0,0,1,.43-.1h0a.33.33,0,0,1,.1.45l-1.48,2.3A.3.3,0,0,1,56,32.66Z"/><path class="cls-16" d="M39.77,33.68h0a.54.54,0,0,1-.15-.74l3.09-4.86a.52.52,0,0,1,.72-.15h0a.53.53,0,0,1,.15.73l-3.09,4.86A.51.51,0,0,1,39.77,33.68Z"/><path class="cls-17" d="M35.12,20.76l-1.63-2.13a5.4,5.4,0,0,0-1-6.11h0a5.14,5.14,0,0,0-7.36,0l-6.42,6.56a5.39,5.39,0,0,0,0,7.51h0a5.14,5.14,0,0,0,7.36,0l4.6-4.7Z"/><text class="cls-6" transform="matrix(0.7, -0.71, 0.7, 0.71, 20.7, 26.38)">wasabi</text><path class="cls-7" d="M50.74,12.84s-1.84,6.28-12,10.68c0,0-2.77,4.08,0,6.59,0,0-5.85-.62-4.93,5.34L34.43,38s-4,.94-3.08,6.59,7.39,8.17,10.77,7.85,7.7-1.88,10.78-1.57S62.44,53,64,51.78s8.92-6.28,1.54-12.56c0,0,1.53-7.53-4-9.11,0,0,0-7.22-5.84-9.73S50.74,12.84,50.74,12.84Z"/><path class="cls-8" d="M78.81,40.36c0,17.13-13.61,31-30.39,31S18,57.49,18,40.36Z"/><g class="cls-9"><rect class="cls-10" x="17.32" y="46.89" width="63.27" height="6.53"/><rect class="cls-10" x="17.6" y="59.44" width="63.27" height="6.53"/></g><path class="cls-2" d="M78.81,40.36c0,17.13-13.61,31-30.39,31S18,57.49,18,40.36Z"/><path class="cls-11" d="M37.93,75.54,29,68.65s-.71-4.35,3.56-2.18,7.86,7.8,7.86,7.8Z"/><path class="cls-11" d="M58.19,75.54l8.89-6.89s.71-4.35-3.56-2.18-7.86,7.8-7.86,7.8Z"/><path class="cls-12" d="M38.09,72.48l-7.27,11.4s.36,1.45,2.49.73a46.48,46.48,0,0,1,13.15-2.18c5.33,0,17.77,2.54,17.77,2.54s1.42-1.09.71-1.81-7.66-9.56-7.38-11.85S39,70.1,39,70.1Z"/><path class="cls-13" d="M47.71,44.89s-.72-3.62-2.85-2.17,1.42,5.08,1.42,5.08S33.49,49.25,31.36,62.3c0,0,1.42,4,3.55,5.08s3.55,9.43,12.8,9.07,12.44-8.71,12.44-8.71,4.62-4.35,4.26-6.16S58.72,47.8,49.84,47.07c0,0,3.2-3.26,1.06-4S48.77,43.08,47.71,44.89Z"/><path class="cls-14" d="M47.88,59.58s3.91-2.9,7.82-2.9a4.63,4.63,0,0,1,4.62,3.63v8S55,76.63,47.88,76.63c-8.53,0-12.44-9.07-12.44-9.07V60.31s1.78-3.63,4.27-3.63S47.17,58.86,47.88,59.58Z"/><path class="cls-1" d="M39.35,63.93A6.68,6.68,0,0,1,45,66.47"/><path class="cls-1" d="M55.7,63.93A6.66,6.66,0,0,0,50,66.47"/><path class="cls-13" d="M41.75,79.89v2.86S54.1,85.9,54.1,83c0-1.81-.17-4.17-.17-4.17H41.84Z"/><rect class="cls-13" x="32.7" y="78.08" width="30.57" height="1.81" rx="0.9"/><path class="cls-15" d="M35.13,25.84v2.5l.69,1.07s.7,6.41,5.24,6.41,7.33-4.28,7.33-6.06c0,0,.7-1.07,1.4-.35s1.05,7.12,7.33,6.41,5.24-6.77,5.24-6.77l1-.36V26.56s-7.68-2.14-13.62,0H48.05S46.65,24.06,35.13,25.84Z"/><path class="cls-3" d="M37.64,27.5s5.71-1.09,7.42,0,2.08,2.7,1.42,3.77-2.75,3.57-4.74,3.38a5,5,0,0,1-4.06-3.09A9.15,9.15,0,0,1,37.64,27.5Z"/><path class="cls-3" d="M60.66,27.89s-5.72-1.1-7.42,0-2.08,2.7-1.42,3.76,2.75,3.57,4.73,3.38a5,5,0,0,0,4.07-3.09A9.1,9.1,0,0,0,60.66,27.89Z"/><path class="cls-16" d="M38.64,32.33h0a.54.54,0,0,1-.15-.74l2.42-3.8a.52.52,0,0,1,.72-.15h0a.54.54,0,0,1,.16.73l-2.43,3.8A.51.51,0,0,1,38.64,32.33Z"/><path class="cls-16" d="M53.69,32.91h0a.54.54,0,0,1-.16-.74L56,28.37a.52.52,0,0,1,.72-.15h0a.53.53,0,0,1,.15.73l-2.42,3.8A.52.52,0,0,1,53.69,32.91Z"/><path class="cls-16" d="M56,32.66h0a.33.33,0,0,1-.1-.45l1.48-2.3a.31.31,0,0,1,.43-.1h0a.33.33,0,0,1,.1.45l-1.48,2.3A.3.3,0,0,1,56,32.66Z"/><path class="cls-16" d="M39.77,33.68h0a.54.54,0,0,1-.15-.74l3.09-4.86a.52.52,0,0,1,.72-.15h0a.53.53,0,0,1,.15.73l-3.09,4.86A.51.51,0,0,1,39.77,33.68Z"/><path class="cls-17" d="M35.12,20.76l-1.63-2.13a5.4,5.4,0,0,0-1-6.11h0a5.14,5.14,0,0,0-7.36,0l-6.42,6.56a5.39,5.39,0,0,0,0,7.51h0a5.14,5.14,0,0,0,7.36,0l4.6-4.7Z"/><text class="cls-6" transform="matrix(0.7, -0.71, 0.7, 0.71, 20.7, 26.38)">wasabi</text><path class="cls-2" d="M50.74,36.77c0,.34-.67,1.54-1.51,1.54a1.52,1.52,0,0,1-1.51-1.54"/></svg>