<svg id="layer_1" data-name="layer 1" xmlns="http://www.w3.org/2000/svg" xmlns:xlink="http://www.w3.org/1999/xlink" viewBox="0 0 64 64"><defs><style>.cls-1,.cls-10,.cls-11,.cls-12,.cls-13,.cls-14,.cls-15,.cls-17,.cls-2,.cls-3,.cls-7,.cls-8{stroke:#000;stroke-width:0.28px;}.cls-1,.cls-10,.cls-11,.cls-12,.cls-2{stroke-linecap:round;stroke-linejoin:round;}.cls-2{fill:none;}.cls-13,.cls-14,.cls-15,.cls-17,.cls-3,.cls-7,.cls-8{stroke-miterlimit:10;}.cls-4{clip-path:url(#clip-path);}.cls-16,.cls-5{opacity:0.43;}.cls-6{font-size:2.93px;font-family:STHupo;}.cls-7{fill:#bfd25b;}.cls-8{fill:#f5ba55;}.cls-9{clip-path:url(#clip-path-4);}.cls-10,.cls-17{fill:#e46d2f;}.cls-11,.cls-14{fill:#f1cb9a;}.cls-12{fill:#f1ca9e;}.cls-13{fill:#341b0f;}.cls-15{fill:#d97822;}.cls-16{fill:#fff;}</style><clipPath id="clip-path"><path class="cls-1" d="M50.2,27.58a18,18,0,0,1-35.91,0Z"/></clipPath><clipPath id="clip-path-4"><path class="cls-2" d="M50.2,27.58a18,18,0,0,1-35.91,0Z"/></clipPath></defs><title>64 64</title><path class="cls-3" d="M28.18,35.13a7.57,7.57,0,0,1-3.89-1.21,5.71,5.71,0,0,1-2.68-3.82,4,4,0,0,1,.86-3.61,3.14,3.14,0,0,1,.85-.64l-.25-1v0a3.2,3.2,0,0,1,.58-2.71,3,3,0,0,1,1.82-1,3.08,3.08,0,0,1-.09-2.09,5.25,5.25,0,0,1,.69-1.54l.09-.13.15-.07a14.5,14.5,0,0,0,5.54-3.83,6.88,6.88,0,0,0,1.24-2l1.08.27c0,.1-.4,2.49,2.58,3.74a6,6,0,0,1,3.33,3.7,8.87,8.87,0,0,1,.44,2A3.9,3.9,0,0,1,43,24.54a8,8,0,0,1,0,2.16,4.65,4.65,0,0,1,1.86,3.53c0,2.1-2,3.61-2.83,4.25l-.19.15a2.32,2.32,0,0,1-1.47.37h0a20.93,20.93,0,0,1-3.52-.48c-.74-.14-1.45-.27-2-.32l-.46,0a16.36,16.36,0,0,0-3.19.48,23.82,23.82,0,0,1-2.61.45Z"/><path class="cls-3" d="M33.62,11.65s-1.09,3.63-7.09,6.18c0,0-1.64,2.36,0,3.82,0,0-3.46-.37-2.91,3.09L24,26.19s-2.36.55-1.81,3.82,4.36,4.73,6.36,4.54,4.54-1.09,6.36-.9,5.64,1.27,6.55.54,5.27-3.64.91-7.27c0,0,.91-4.37-2.37-5.27,0,0,0-4.19-3.45-5.64S33.62,11.65,33.62,11.65Z"/><path class="cls-3" d="M32.25,46.09A18.52,18.52,0,0,1,13.73,27.58V27h37v.56A18.51,18.51,0,0,1,32.25,46.09Z"/><path class="cls-3" d="M50.2,27.58a18,18,0,0,1-35.91,0Z"/><path d="M50.2,27.58a18,18,0,0,1-35.91,0Z"/><g class="cls-4"><rect class="cls-1" x="30.11" y="14" width="4.9" height="38.49" transform="translate(65.81 0.69) rotate(90)"/><rect class="cls-1" x="13.87" y="31.36" width="37.37" height="3.78"/><rect class="cls-1" x="30.28" y="21.27" width="4.9" height="38.49" transform="translate(73.24 7.78) rotate(90)"/><rect class="cls-1" x="14.04" y="38.62" width="37.37" height="3.78"/><path class="cls-1" d="M32.25,46.09A18.52,18.52,0,0,1,13.73,27.58V27h37v.56A18.51,18.51,0,0,1,32.25,46.09Z"/></g><path class="cls-2" d="M50.2,27.58a18,18,0,0,1-35.91,0Z"/><path class="cls-1" d="M20.29,44.27l0-.22a2.44,2.44,0,0,1,.37-1.79,1.39,1.39,0,0,1,1.1-.48,3.34,3.34,0,0,1,1.43.41c2.63,1.32,4.78,4.58,4.87,4.71l.34.53L26,48.6Z"/><path class="cls-1" d="M26.05,47.94,20.8,44s-.42-2.52,2.1-1.26,4.65,4.52,4.65,4.52Z"/><path class="cls-1" d="M35.71,47.43l.35-.53c.09-.13,2.23-3.39,4.86-4.71a3.34,3.34,0,0,1,1.43-.41,1.39,1.39,0,0,1,1.1.48,2.44,2.44,0,0,1,.37,1.79l0,.22-5.7,4.33Z"/><path class="cls-1" d="M38,47.94l5.25-4s.42-2.52-2.1-1.26-4.65,4.52-4.65,4.52Z"/><path class="cls-1" d="M41.48,54c-.07,0-7.33-1.46-10.39-1.46a27.81,27.81,0,0,0-7.59,1.23,2.54,2.54,0,0,1-.81.15h0a1.45,1.45,0,0,1-1.1-.45,1.3,1.3,0,0,1-.28-.51l-.06-.24,4.39-6.75.65-1.66.36,0s2.68-.15,5.36-.15c1.47,0,2.69,0,3.61.13,1.69.16,2.15.45,2.38.7a.81.81,0,0,1,.2.64s-.05.67,1.87,3.38c1,1.5,2.16,2.84,2.33,3a.93.93,0,0,1,.28.73,1.83,1.83,0,0,1-.76,1.16l-.2.15Z"/><path class="cls-1" d="M26.14,46.17l-4.29,6.6s.21.84,1.47.42a28.1,28.1,0,0,1,7.77-1.26c3.15,0,10.5,1.47,10.5,1.47s.84-.63.42-1-4.53-5.53-4.36-6.86-11-.7-11-.7Z"/><path class="cls-3" d="M31.48,49a6.65,6.65,0,0,1-4.42-1.5,10.46,10.46,0,0,1-2.19-2.68A4,4,0,0,0,24,43.72c-1.42-.71-2.28-3-2.38-3.25l-.05-.14,0-.14a10.15,10.15,0,0,1,5.15-7.43,12.73,12.73,0,0,1,3.17-1.25l-.06-.09a2.94,2.94,0,0,1-.69-1.89,1.41,1.41,0,0,1,.65-1.05,1.52,1.52,0,0,1,.87-.3,1.46,1.46,0,0,1,1.22.78,1.22,1.22,0,0,1,1-.53,3,3,0,0,1,.93.19,1.1,1.1,0,0,1,.79.8,2.22,2.22,0,0,1-.53,1.64,10.5,10.5,0,0,1,5.57,4,15.16,15.16,0,0,1,2.52,4.67c.08.4,0,1.1-1.3,2.65-.54.63-1.09,1.16-1.3,1.36A9.21,9.21,0,0,1,38,46.25,8.7,8.7,0,0,1,31.85,49h-.37Z"/><path class="cls-3" d="M31.83,30.2s-.42-2.1-1.68-1.26.84,2.94.84,2.94-7.56.84-8.82,8.4c0,0,.84,2.31,2.1,2.94s2.1,5.46,7.56,5.25a8.43,8.43,0,0,0,7.34-5s2.73-2.52,2.52-3.57-3.36-8-8.6-8.4c0,0,1.89-1.89.63-2.31S32.46,29.15,31.83,30.2Z"/><path class="cls-3" d="M31.93,49.13a8,8,0,0,1-6-2.8,11.39,11.39,0,0,1-1.89-2.78L24,43.44V39l.06-.11c.13-.25,1.26-2.41,3-2.41A12.72,12.72,0,0,1,31.93,38a9.4,9.4,0,0,1,4.62-1.56A3.25,3.25,0,0,1,39.83,39v4.89l-.09.14C39.61,44.26,36.38,49.13,31.93,49.13Z"/><path class="cls-3" d="M31.93,38.71A9.27,9.27,0,0,1,36.55,37a2.71,2.71,0,0,1,2.73,2.1v4.61s-3.15,4.83-7.35,4.83c-5,0-7.35-5.25-7.35-5.25V39.13S25.63,37,27.1,37A11.71,11.71,0,0,1,31.93,38.71Z"/><path class="cls-1" d="M29.8,43A3.35,3.35,0,0,0,27,41.78l-.11-1.11a4.52,4.52,0,0,1,3.86,1.69Z"/><path class="cls-1" d="M26.89,41.22a4,4,0,0,1,3.36,1.47"/><path class="cls-1" d="M33.64,43l-.9-.67a4.54,4.54,0,0,1,3.87-1.69l-.12,1.11.06-.56,0,.56A3.37,3.37,0,0,0,33.64,43Z"/><path class="cls-1" d="M36.55,41.22a4,4,0,0,0-3.36,1.47"/><path class="cls-3" d="M33.87,53.53a29.65,29.65,0,0,1-5.7-.87l-.42-.1V50.44l.1-1.17H36l0,.52c0,.06.1,1.4.1,2.46a1.12,1.12,0,0,1-.86,1.08,4.18,4.18,0,0,1-1.43.2Z"/><path class="cls-3" d="M28.31,50.46v1.66s7.3,1.82,7.3.13c0-1-.11-2.42-.11-2.42H28.36Z"/><path class="cls-3" d="M23.49,51a1.09,1.09,0,1,1,0-2.17h17a1.09,1.09,0,1,1,0,2.17Z"/><rect class="cls-3" x="22.96" y="49.41" width="18.06" height="1.05" rx="0.52"/><path class="cls-3" d="M36.83,25.54a3.64,3.64,0,0,1-3-1.36A6.31,6.31,0,0,1,32.8,22l-.06-.17A4.76,4.76,0,0,1,31.47,24a5.09,5.09,0,0,1-3.57,1.53,3.35,3.35,0,0,1-3.06-2.18,7.44,7.44,0,0,1-.57-1.89l-.43-.65v-2.1l.47-.07a29.51,29.51,0,0,1,4.31-.38c2.26,0,3.23.45,3.64.79H33a11.59,11.59,0,0,1,3.74-.55,18.7,18.7,0,0,1,4.55.57l.41.11v2.07l-.58.19A4.16,4.16,0,0,1,40.33,24a4,4,0,0,1-2.88,1.47A4.4,4.4,0,0,1,36.83,25.54Z"/><path class="cls-3" d="M24.39,19.17v1.45l.42.62S25.22,25,27.9,25a4.51,4.51,0,0,0,4.33-3.51s.42-.62.83-.2.62,4.12,4.33,3.71A3.29,3.29,0,0,0,40.48,21l.62-.21V19.58s-4.53-1.23-8,0H32S31.2,18.14,24.39,19.17Z"/><path class="cls-3" d="M28.43,24.82h-.18a3.55,3.55,0,0,1-2.87-2.14A5.7,5.7,0,0,1,25.33,20l.08-.37.37-.07a19.07,19.07,0,0,1,2.94-.29,3.54,3.54,0,0,1,1.83.35,2.56,2.56,0,0,1,1.24,1.58,1.75,1.75,0,0,1-.22,1.37C31.08,23.36,29.8,24.82,28.43,24.82Z"/><path class="cls-3" d="M25.88,20.13s3.38-.63,4.38,0,1.23,1.57.84,2.18-1.62,2.07-2.8,2a3,3,0,0,1-2.4-1.79A5.26,5.26,0,0,1,25.88,20.13Z"/><path class="cls-3" d="M36.92,25c-1.36,0-2.65-1.45-3.13-2.22a1.73,1.73,0,0,1-.22-1.37,2.57,2.57,0,0,1,1.23-1.59,3.71,3.71,0,0,1,1.84-.35,17.59,17.59,0,0,1,2.94.3l.37.07.07.36a5.53,5.53,0,0,1,0,2.65A3.53,3.53,0,0,1,37.11,25Z"/><path class="cls-3" d="M39.48,20.36s-3.38-.64-4.38,0-1.23,1.56-.84,2.18,1.62,2.07,2.79,1.95a3,3,0,0,0,2.41-1.78A5.26,5.26,0,0,0,39.48,20.36Z"/><path class="cls-5" d="M26.64,23.53a.79.79,0,0,1-.47-.14.84.84,0,0,1-.38-.54.9.9,0,0,1,.12-.66L27.35,20a.86.86,0,0,1,1.57.29.87.87,0,0,1-.12.65l-1.44,2.2A.85.85,0,0,1,26.64,23.53Z"/><path class="cls-5" d="M26.47,22.93h0a.32.32,0,0,1-.09-.43l1.43-2.2a.32.32,0,0,1,.43-.09h0a.32.32,0,0,1,.09.43l-1.43,2.2A.32.32,0,0,1,26.47,22.93Z"/><path class="cls-5" d="M35.53,23.87a.92.92,0,0,1-.48-.14.88.88,0,0,1-.37-.55.83.83,0,0,1,.12-.65l1.43-2.2a.87.87,0,0,1,1.2-.25.84.84,0,0,1,.38.54,1,1,0,0,1-.12.66l-1.44,2.2A.87.87,0,0,1,35.53,23.87Z"/><path class="cls-5" d="M35.36,23.26h0a.31.31,0,0,1-.09-.42l1.43-2.2a.3.3,0,0,1,.43-.09h0a.31.31,0,0,1,.09.42l-1.44,2.2A.31.31,0,0,1,35.36,23.26Z"/><path class="cls-5" d="M36.81,23.71a.72.72,0,0,1-.4-.12.79.79,0,0,1-.33-.47.76.76,0,0,1,.11-.57l.87-1.33a.75.75,0,0,1,.62-.34A.75.75,0,0,1,38.31,22l-.87,1.34A.75.75,0,0,1,36.81,23.71Z"/><path class="cls-5" d="M36.71,23.12h0a.19.19,0,0,1-.05-.26l.87-1.33a.18.18,0,0,1,.26-.06h0a.19.19,0,0,1,.05.26L37,23.06A.19.19,0,0,1,36.71,23.12Z"/><path class="cls-5" d="M27.31,24.32A.87.87,0,0,1,26.58,23l1.83-2.82a.87.87,0,0,1,.72-.39.92.92,0,0,1,.48.14.87.87,0,0,1,.25,1.2L28,23.92A.89.89,0,0,1,27.31,24.32Z"/><rect class="cls-5" x="27.91" y="20.06" width="0.61" height="3.97" rx="0.31" transform="translate(16.54 -11.81) rotate(32.97)"/><path class="cls-3" d="M16.88,21.06a3.63,3.63,0,0,1-2.57-6.2l3.79-3.8a3.63,3.63,0,0,1,6,3.85l1.29,1.65-3.31.83L19.45,20A3.64,3.64,0,0,1,16.88,21.06Z"/><path class="cls-3" d="M24.39,16.23l-1-1.23a3.09,3.09,0,0,0-.58-3.54h0a3.08,3.08,0,0,0-4.35,0l-3.8,3.79a3.08,3.08,0,0,0,0,4.35h0a3.08,3.08,0,0,0,4.35,0l2.72-2.71Z"/><text class="cls-6" transform="translate(15.87 19.48) rotate(-45)">wasabi</text><path class="cls-3" d="M28.18,35.13a7.57,7.57,0,0,1-3.89-1.21,5.71,5.71,0,0,1-2.68-3.82,4,4,0,0,1,.86-3.61,3.14,3.14,0,0,1,.85-.64l-.25-1v0a3.2,3.2,0,0,1,.58-2.71,3,3,0,0,1,1.82-1,3.08,3.08,0,0,1-.09-2.09,5.25,5.25,0,0,1,.69-1.54l.09-.13.15-.07a14.5,14.5,0,0,0,5.54-3.83,6.88,6.88,0,0,0,1.24-2l1.08.27c0,.1-.4,2.49,2.58,3.74a6,6,0,0,1,3.33,3.7,8.87,8.87,0,0,1,.44,2A3.9,3.9,0,0,1,43,24.54a8,8,0,0,1,0,2.16,4.65,4.65,0,0,1,1.86,3.53c0,2.1-2,3.61-2.83,4.25l-.19.15a2.32,2.32,0,0,1-1.47.37h0a20.93,20.93,0,0,1-3.52-.48c-.74-.14-1.45-.27-2-.32l-.46,0a16.36,16.36,0,0,0-3.19.48,23.82,23.82,0,0,1-2.61.45Z"/><path class="cls-3" d="M33.62,11.65s-1.09,3.63-7.09,6.18c0,0-1.64,2.36,0,3.82,0,0-3.46-.37-2.91,3.09L24,26.19s-2.36.55-1.81,3.82,4.36,4.73,6.36,4.54,4.54-1.09,6.36-.9,5.64,1.27,6.55.54,5.27-3.64.91-7.27c0,0,.91-4.37-2.37-5.27,0,0,0-4.19-3.45-5.64S33.62,11.65,33.62,11.65Z"/><path class="cls-3" d="M32.25,46.09A18.52,18.52,0,0,1,13.73,27.58V27h37v.56A18.51,18.51,0,0,1,32.25,46.09Z"/><path class="cls-3" d="M50.2,27.58a18,18,0,0,1-35.91,0Z"/><path d="M50.2,27.58a18,18,0,0,1-35.91,0Z"/><g class="cls-4"><rect class="cls-1" x="30.11" y="14" width="4.9" height="38.49" transform="translate(65.81 0.69) rotate(90)"/><rect class="cls-1" x="13.87" y="31.36" width="37.37" height="3.78"/><rect class="cls-1" x="30.28" y="21.27" width="4.9" height="38.49" transform="translate(73.24 7.78) rotate(90)"/><rect class="cls-1" x="14.04" y="38.62" width="37.37" height="3.78"/><path class="cls-1" d="M32.25,46.09A18.52,18.52,0,0,1,13.73,27.58V27h37v.56A18.51,18.51,0,0,1,32.25,46.09Z"/></g><path class="cls-2" d="M50.2,27.58a18,18,0,0,1-35.91,0Z"/><path class="cls-1" d="M20.29,44.27l0-.22a2.44,2.44,0,0,1,.37-1.79,1.39,1.39,0,0,1,1.1-.48,3.34,3.34,0,0,1,1.43.41c2.63,1.32,4.78,4.58,4.87,4.71l.34.53L26,48.6Z"/><path class="cls-1" d="M26.05,47.94,20.8,44s-.42-2.52,2.1-1.26,4.65,4.52,4.65,4.52Z"/><path class="cls-1" d="M35.71,47.43l.35-.53c.09-.13,2.23-3.39,4.86-4.71a3.34,3.34,0,0,1,1.43-.41,1.39,1.39,0,0,1,1.1.48,2.44,2.44,0,0,1,.37,1.79l0,.22-5.7,4.33Z"/><path class="cls-1" d="M38,47.94l5.25-4s.42-2.52-2.1-1.26-4.65,4.52-4.65,4.52Z"/><path class="cls-1" d="M41.48,54c-.07,0-7.33-1.46-10.39-1.46a27.81,27.81,0,0,0-7.59,1.23,2.54,2.54,0,0,1-.81.15h0a1.45,1.45,0,0,1-1.1-.45,1.3,1.3,0,0,1-.28-.51l-.06-.24,4.39-6.75.65-1.66.36,0s2.68-.15,5.36-.15c1.47,0,2.69,0,3.61.13,1.69.16,2.15.45,2.38.7a.81.81,0,0,1,.2.64s-.05.67,1.87,3.38c1,1.5,2.16,2.84,2.33,3a.93.93,0,0,1,.28.73,1.83,1.83,0,0,1-.76,1.16l-.2.15Z"/><path class="cls-1" d="M26.14,46.17l-4.29,6.6s.21.84,1.47.42a28.1,28.1,0,0,1,7.77-1.26c3.15,0,10.5,1.47,10.5,1.47s.84-.63.42-1-4.53-5.53-4.36-6.86-11-.7-11-.7Z"/><path class="cls-3" d="M31.48,49a6.65,6.65,0,0,1-4.42-1.5,10.46,10.46,0,0,1-2.19-2.68A4,4,0,0,0,24,43.72c-1.42-.71-2.28-3-2.38-3.25l-.05-.14,0-.14a10.15,10.15,0,0,1,5.15-7.43,12.73,12.73,0,0,1,3.17-1.25l-.06-.09a2.94,2.94,0,0,1-.69-1.89,1.41,1.41,0,0,1,.65-1.05,1.52,1.52,0,0,1,.87-.3,1.46,1.46,0,0,1,1.22.78,1.22,1.22,0,0,1,1-.53,3,3,0,0,1,.93.19,1.1,1.1,0,0,1,.79.8,2.22,2.22,0,0,1-.53,1.64,10.5,10.5,0,0,1,5.57,4,15.16,15.16,0,0,1,2.52,4.67c.08.4,0,1.1-1.3,2.65-.54.63-1.09,1.16-1.3,1.36A9.21,9.21,0,0,1,38,46.25,8.7,8.7,0,0,1,31.85,49h-.37Z"/><path class="cls-3" d="M31.83,30.2s-.42-2.1-1.68-1.26.84,2.94.84,2.94-7.56.84-8.82,8.4c0,0,.84,2.31,2.1,2.94s2.1,5.46,7.56,5.25a8.43,8.43,0,0,0,7.34-5s2.73-2.52,2.52-3.57-3.36-8-8.6-8.4c0,0,1.89-1.89.63-2.31S32.46,29.15,31.83,30.2Z"/><path class="cls-3" d="M31.93,49.13a8,8,0,0,1-6-2.8,11.39,11.39,0,0,1-1.89-2.78L24,43.44V39l.06-.11c.13-.25,1.26-2.41,3-2.41A12.72,12.72,0,0,1,31.93,38a9.4,9.4,0,0,1,4.62-1.56A3.25,3.25,0,0,1,39.83,39v4.89l-.09.14C39.61,44.26,36.38,49.13,31.93,49.13Z"/><path class="cls-3" d="M31.93,38.71A9.27,9.27,0,0,1,36.55,37a2.71,2.71,0,0,1,2.73,2.1v4.61s-3.15,4.83-7.35,4.83c-5,0-7.35-5.25-7.35-5.25V39.13S25.63,37,27.1,37A11.71,11.71,0,0,1,31.93,38.71Z"/><path class="cls-1" d="M29.8,43A3.35,3.35,0,0,0,27,41.78l-.11-1.11a4.52,4.52,0,0,1,3.86,1.69Z"/><path class="cls-1" d="M26.89,41.22a4,4,0,0,1,3.36,1.47"/><path class="cls-1" d="M33.64,43l-.9-.67a4.54,4.54,0,0,1,3.87-1.69l-.12,1.11.06-.56,0,.56A3.37,3.37,0,0,0,33.64,43Z"/><path class="cls-1" d="M36.55,41.22a4,4,0,0,0-3.36,1.47"/><path class="cls-3" d="M33.87,53.53a29.65,29.65,0,0,1-5.7-.87l-.42-.1V50.44l.1-1.17H36l0,.52c0,.06.1,1.4.1,2.46a1.12,1.12,0,0,1-.86,1.08,4.18,4.18,0,0,1-1.43.2Z"/><path class="cls-3" d="M28.31,50.46v1.66s7.3,1.82,7.3.13c0-1-.11-2.42-.11-2.42H28.36Z"/><path class="cls-3" d="M23.49,51a1.09,1.09,0,1,1,0-2.17h17a1.09,1.09,0,1,1,0,2.17Z"/><rect class="cls-3" x="22.96" y="49.41" width="18.06" height="1.05" rx="0.52"/><path class="cls-3" d="M36.83,25.54a3.64,3.64,0,0,1-3-1.36A6.31,6.31,0,0,1,32.8,22l-.06-.17A4.76,4.76,0,0,1,31.47,24a5.09,5.09,0,0,1-3.57,1.53,3.35,3.35,0,0,1-3.06-2.18,7.44,7.44,0,0,1-.57-1.89l-.43-.65v-2.1l.47-.07a29.51,29.51,0,0,1,4.31-.38c2.26,0,3.23.45,3.64.79H33a11.59,11.59,0,0,1,3.74-.55,18.7,18.7,0,0,1,4.55.57l.41.11v2.07l-.58.19A4.16,4.16,0,0,1,40.33,24a4,4,0,0,1-2.88,1.47A4.4,4.4,0,0,1,36.83,25.54Z"/><path class="cls-3" d="M24.39,19.17v1.45l.42.62S25.22,25,27.9,25a4.51,4.51,0,0,0,4.33-3.51s.42-.62.83-.2.62,4.12,4.33,3.71A3.29,3.29,0,0,0,40.48,21l.62-.21V19.58s-4.53-1.23-8,0H32S31.2,18.14,24.39,19.17Z"/><path class="cls-3" d="M28.43,24.82h-.18a3.55,3.55,0,0,1-2.87-2.14A5.7,5.7,0,0,1,25.33,20l.08-.37.37-.07a19.07,19.07,0,0,1,2.94-.29,3.54,3.54,0,0,1,1.83.35,2.56,2.56,0,0,1,1.24,1.58,1.75,1.75,0,0,1-.22,1.37C31.08,23.36,29.8,24.82,28.43,24.82Z"/><path class="cls-3" d="M25.88,20.13s3.38-.63,4.38,0,1.23,1.57.84,2.18-1.62,2.07-2.8,2a3,3,0,0,1-2.4-1.79A5.26,5.26,0,0,1,25.88,20.13Z"/><path class="cls-3" d="M36.92,25c-1.36,0-2.65-1.45-3.13-2.22a1.73,1.73,0,0,1-.22-1.37,2.57,2.57,0,0,1,1.23-1.59,3.71,3.71,0,0,1,1.84-.35,17.59,17.59,0,0,1,2.94.3l.37.07.07.36a5.53,5.53,0,0,1,0,2.65A3.53,3.53,0,0,1,37.11,25Z"/><path class="cls-3" d="M39.48,20.36s-3.38-.64-4.38,0-1.23,1.56-.84,2.18,1.62,2.07,2.79,1.95a3,3,0,0,0,2.41-1.78A5.26,5.26,0,0,0,39.48,20.36Z"/><path class="cls-5" d="M26.64,23.53a.79.79,0,0,1-.47-.14.84.84,0,0,1-.38-.54.9.9,0,0,1,.12-.66L27.35,20a.86.86,0,0,1,1.57.29.87.87,0,0,1-.12.65l-1.44,2.2A.85.85,0,0,1,26.64,23.53Z"/><path class="cls-5" d="M26.47,22.93h0a.32.32,0,0,1-.09-.43l1.43-2.2a.32.32,0,0,1,.43-.09h0a.32.32,0,0,1,.09.43l-1.43,2.2A.32.32,0,0,1,26.47,22.93Z"/><path class="cls-5" d="M35.53,23.87a.92.92,0,0,1-.48-.14.88.88,0,0,1-.37-.55.83.83,0,0,1,.12-.65l1.43-2.2a.87.87,0,0,1,1.2-.25.84.84,0,0,1,.38.54,1,1,0,0,1-.12.66l-1.44,2.2A.87.87,0,0,1,35.53,23.87Z"/><path class="cls-5" d="M35.36,23.26h0a.31.31,0,0,1-.09-.42l1.43-2.2a.3.3,0,0,1,.43-.09h0a.31.31,0,0,1,.09.42l-1.44,2.2A.31.31,0,0,1,35.36,23.26Z"/><path class="cls-5" d="M36.81,23.71a.72.72,0,0,1-.4-.12.79.79,0,0,1-.33-.47.76.76,0,0,1,.11-.57l.87-1.33a.75.75,0,0,1,.62-.34A.75.75,0,0,1,38.31,22l-.87,1.34A.75.75,0,0,1,36.81,23.71Z"/><path class="cls-5" d="M36.71,23.12h0a.19.19,0,0,1-.05-.26l.87-1.33a.18.18,0,0,1,.26-.06h0a.19.19,0,0,1,.05.26L37,23.06A.19.19,0,0,1,36.71,23.12Z"/><path class="cls-5" d="M27.31,24.32A.87.87,0,0,1,26.58,23l1.83-2.82a.87.87,0,0,1,.72-.39.92.92,0,0,1,.48.14.87.87,0,0,1,.25,1.2L28,23.92A.89.89,0,0,1,27.31,24.32Z"/><rect class="cls-5" x="27.91" y="20.06" width="0.61" height="3.97" rx="0.31" transform="translate(16.54 -11.81) rotate(32.97)"/><path class="cls-3" d="M16.88,21.06a3.63,3.63,0,0,1-2.57-6.2l3.79-3.8a3.63,3.63,0,0,1,6,3.85l1.29,1.65-3.31.83L19.45,20A3.64,3.64,0,0,1,16.88,21.06Z"/><path class="cls-3" d="M24.39,16.23l-1-1.23a3.09,3.09,0,0,0-.58-3.54h0a3.08,3.08,0,0,0-4.35,0l-3.8,3.79a3.08,3.08,0,0,0,0,4.35h0a3.08,3.08,0,0,0,4.35,0l2.72-2.71Z"/><text class="cls-6" transform="translate(15.87 19.48) rotate(-45)">wasabi</text><path class="cls-3" d="M28.18,35.13a7.57,7.57,0,0,1-3.89-1.21,5.71,5.71,0,0,1-2.68-3.82,4,4,0,0,1,.86-3.61,3.14,3.14,0,0,1,.85-.64l-.25-1v0a3.2,3.2,0,0,1,.58-2.71,3,3,0,0,1,1.82-1,3.08,3.08,0,0,1-.09-2.09,5.25,5.25,0,0,1,.69-1.54l.09-.13.15-.07a14.5,14.5,0,0,0,5.54-3.83,6.88,6.88,0,0,0,1.24-2l1.08.27c0,.1-.4,2.49,2.58,3.74a6,6,0,0,1,3.33,3.7,8.87,8.87,0,0,1,.44,2A3.9,3.9,0,0,1,43,24.54a8,8,0,0,1,0,2.16,4.65,4.65,0,0,1,1.86,3.53c0,2.1-2,3.61-2.83,4.25l-.19.15a2.32,2.32,0,0,1-1.47.37h0a20.93,20.93,0,0,1-3.52-.48c-.74-.14-1.45-.27-2-.32l-.46,0a16.36,16.36,0,0,0-3.19.48,23.82,23.82,0,0,1-2.61.45Z"/><path class="cls-3" d="M33.62,11.65s-1.09,3.63-7.09,6.18c0,0-1.64,2.36,0,3.82,0,0-3.46-.37-2.91,3.09L24,26.19s-2.36.55-1.81,3.82,4.36,4.73,6.36,4.54,4.54-1.09,6.36-.9,5.64,1.27,6.55.54,5.27-3.64.91-7.27c0,0,.91-4.37-2.37-5.27,0,0,0-4.19-3.45-5.64S33.62,11.65,33.62,11.65Z"/><path class="cls-3" d="M32.25,46.09A18.52,18.52,0,0,1,13.73,27.58V27h37v.56A18.51,18.51,0,0,1,32.25,46.09Z"/><path class="cls-3" d="M50.2,27.58a18,18,0,0,1-35.91,0Z"/><path d="M50.2,27.58a18,18,0,0,1-35.91,0Z"/><g class="cls-4"><rect class="cls-1" x="30.11" y="14" width="4.9" height="38.49" transform="translate(65.81 0.69) rotate(90)"/><rect class="cls-1" x="13.87" y="31.36" width="37.37" height="3.78"/><rect class="cls-1" x="30.28" y="21.27" width="4.9" height="38.49" transform="translate(73.24 7.78) rotate(90)"/><rect class="cls-1" x="14.04" y="38.62" width="37.37" height="3.78"/><path class="cls-1" d="M32.25,46.09A18.52,18.52,0,0,1,13.73,27.58V27h37v.56A18.51,18.51,0,0,1,32.25,46.09Z"/></g><path class="cls-2" d="M50.2,27.58a18,18,0,0,1-35.91,0Z"/><path class="cls-1" d="M20.29,44.27l0-.22a2.44,2.44,0,0,1,.37-1.79,1.39,1.39,0,0,1,1.1-.48,3.34,3.34,0,0,1,1.43.41c2.63,1.32,4.78,4.58,4.87,4.71l.34.53L26,48.6Z"/><path class="cls-1" d="M26.05,47.94,20.8,44s-.42-2.52,2.1-1.26,4.65,4.52,4.65,4.52Z"/><path class="cls-1" d="M35.71,47.43l.35-.53c.09-.13,2.23-3.39,4.86-4.71a3.34,3.34,0,0,1,1.43-.41,1.39,1.39,0,0,1,1.1.48,2.44,2.44,0,0,1,.37,1.79l0,.22-5.7,4.33Z"/><path class="cls-1" d="M38,47.94l5.25-4s.42-2.52-2.1-1.26-4.65,4.52-4.65,4.52Z"/><path class="cls-1" d="M41.48,54c-.07,0-7.33-1.46-10.39-1.46a27.81,27.81,0,0,0-7.59,1.23,2.54,2.54,0,0,1-.81.15h0a1.45,1.45,0,0,1-1.1-.45,1.3,1.3,0,0,1-.28-.51l-.06-.24,4.39-6.75.65-1.66.36,0s2.68-.15,5.36-.15c1.47,0,2.69,0,3.61.13,1.69.16,2.15.45,2.38.7a.81.81,0,0,1,.2.64s-.05.67,1.87,3.38c1,1.5,2.16,2.84,2.33,3a.93.93,0,0,1,.28.73,1.83,1.83,0,0,1-.76,1.16l-.2.15Z"/><path class="cls-1" d="M26.14,46.17l-4.29,6.6s.21.84,1.47.42a28.1,28.1,0,0,1,7.77-1.26c3.15,0,10.5,1.47,10.5,1.47s.84-.63.42-1-4.53-5.53-4.36-6.86-11-.7-11-.7Z"/><path class="cls-3" d="M31.48,49a6.65,6.65,0,0,1-4.42-1.5,10.46,10.46,0,0,1-2.19-2.68A4,4,0,0,0,24,43.72c-1.42-.71-2.28-3-2.38-3.25l-.05-.14,0-.14a10.15,10.15,0,0,1,5.15-7.43,12.73,12.73,0,0,1,3.17-1.25l-.06-.09a2.94,2.94,0,0,1-.69-1.89,1.41,1.41,0,0,1,.65-1.05,1.52,1.52,0,0,1,.87-.3,1.46,1.46,0,0,1,1.22.78,1.22,1.22,0,0,1,1-.53,3,3,0,0,1,.93.19,1.1,1.1,0,0,1,.79.8,2.22,2.22,0,0,1-.53,1.64,10.5,10.5,0,0,1,5.57,4,15.16,15.16,0,0,1,2.52,4.67c.08.4,0,1.1-1.3,2.65-.54.63-1.09,1.16-1.3,1.36A9.21,9.21,0,0,1,38,46.25,8.7,8.7,0,0,1,31.85,49h-.37Z"/><path class="cls-3" d="M31.83,30.2s-.42-2.1-1.68-1.26.84,2.94.84,2.94-7.56.84-8.82,8.4c0,0,.84,2.31,2.1,2.94s2.1,5.46,7.56,5.25a8.43,8.43,0,0,0,7.34-5s2.73-2.52,2.52-3.57-3.36-8-8.6-8.4c0,0,1.89-1.89.63-2.31S32.46,29.15,31.83,30.2Z"/><path class="cls-3" d="M31.93,49.13a8,8,0,0,1-6-2.8,11.39,11.39,0,0,1-1.89-2.78L24,43.44V39l.06-.11c.13-.25,1.26-2.41,3-2.41A12.72,12.72,0,0,1,31.93,38a9.4,9.4,0,0,1,4.62-1.56A3.25,3.25,0,0,1,39.83,39v4.89l-.09.14C39.61,44.26,36.38,49.13,31.93,49.13Z"/><path class="cls-3" d="M31.93,38.71A9.27,9.27,0,0,1,36.55,37a2.71,2.71,0,0,1,2.73,2.1v4.61s-3.15,4.83-7.35,4.83c-5,0-7.35-5.25-7.35-5.25V39.13S25.63,37,27.1,37A11.71,11.71,0,0,1,31.93,38.71Z"/><path class="cls-1" d="M29.8,43A3.35,3.35,0,0,0,27,41.78l-.11-1.11a4.52,4.52,0,0,1,3.86,1.69Z"/><path class="cls-1" d="M26.89,41.22a4,4,0,0,1,3.36,1.47"/><path class="cls-1" d="M33.64,43l-.9-.67a4.54,4.54,0,0,1,3.87-1.69l-.12,1.11.06-.56,0,.56A3.37,3.37,0,0,0,33.64,43Z"/><path class="cls-1" d="M36.55,41.22a4,4,0,0,0-3.36,1.47"/><path class="cls-3" d="M33.87,53.53a29.65,29.65,0,0,1-5.7-.87l-.42-.1V50.44l.1-1.17H36l0,.52c0,.06.1,1.4.1,2.46a1.12,1.12,0,0,1-.86,1.08,4.18,4.18,0,0,1-1.43.2Z"/><path class="cls-3" d="M28.31,50.46v1.66s7.3,1.82,7.3.13c0-1-.11-2.42-.11-2.42H28.36Z"/><path class="cls-3" d="M23.49,51a1.09,1.09,0,1,1,0-2.17h17a1.09,1.09,0,1,1,0,2.17Z"/><rect class="cls-3" x="22.96" y="49.41" width="18.06" height="1.05" rx="0.52"/><path class="cls-3" d="M36.83,25.54a3.64,3.64,0,0,1-3-1.36A6.31,6.31,0,0,1,32.8,22l-.06-.17A4.76,4.76,0,0,1,31.47,24a5.09,5.09,0,0,1-3.57,1.53,3.35,3.35,0,0,1-3.06-2.18,7.44,7.44,0,0,1-.57-1.89l-.43-.65v-2.1l.47-.07a29.51,29.51,0,0,1,4.31-.38c2.26,0,3.23.45,3.64.79H33a11.59,11.59,0,0,1,3.74-.55,18.7,18.7,0,0,1,4.55.57l.41.11v2.07l-.58.19A4.16,4.16,0,0,1,40.33,24a4,4,0,0,1-2.88,1.47A4.4,4.4,0,0,1,36.83,25.54Z"/><path class="cls-3" d="M24.39,19.17v1.45l.42.62S25.22,25,27.9,25a4.51,4.51,0,0,0,4.33-3.51s.42-.62.83-.2.62,4.12,4.33,3.71A3.29,3.29,0,0,0,40.48,21l.62-.21V19.58s-4.53-1.23-8,0H32S31.2,18.14,24.39,19.17Z"/><path class="cls-3" d="M28.43,24.82h-.18a3.55,3.55,0,0,1-2.87-2.14A5.7,5.7,0,0,1,25.33,20l.08-.37.37-.07a19.07,19.07,0,0,1,2.94-.29,3.54,3.54,0,0,1,1.83.35,2.56,2.56,0,0,1,1.24,1.58,1.75,1.75,0,0,1-.22,1.37C31.08,23.36,29.8,24.82,28.43,24.82Z"/><path class="cls-3" d="M25.88,20.13s3.38-.63,4.38,0,1.23,1.57.84,2.18-1.62,2.07-2.8,2a3,3,0,0,1-2.4-1.79A5.26,5.26,0,0,1,25.88,20.13Z"/><path class="cls-3" d="M36.92,25c-1.36,0-2.65-1.45-3.13-2.22a1.73,1.73,0,0,1-.22-1.37,2.57,2.57,0,0,1,1.23-1.59,3.71,3.71,0,0,1,1.84-.35,17.59,17.59,0,0,1,2.94.3l.37.07.07.36a5.53,5.53,0,0,1,0,2.65A3.53,3.53,0,0,1,37.11,25Z"/><path class="cls-3" d="M39.48,20.36s-3.38-.64-4.38,0-1.23,1.56-.84,2.18,1.62,2.07,2.79,1.95a3,3,0,0,0,2.41-1.78A5.26,5.26,0,0,0,39.48,20.36Z"/><path class="cls-5" d="M26.64,23.53a.79.79,0,0,1-.47-.14.84.84,0,0,1-.38-.54.9.9,0,0,1,.12-.66L27.35,20a.86.86,0,0,1,1.57.29.87.87,0,0,1-.12.65l-1.44,2.2A.85.85,0,0,1,26.64,23.53Z"/><path class="cls-5" d="M26.47,22.93h0a.32.32,0,0,1-.09-.43l1.43-2.2a.32.32,0,0,1,.43-.09h0a.32.32,0,0,1,.09.43l-1.43,2.2A.32.32,0,0,1,26.47,22.93Z"/><path class="cls-5" d="M35.53,23.87a.92.92,0,0,1-.48-.14.88.88,0,0,1-.37-.55.83.83,0,0,1,.12-.65l1.43-2.2a.87.87,0,0,1,1.2-.25.84.84,0,0,1,.38.54,1,1,0,0,1-.12.66l-1.44,2.2A.87.87,0,0,1,35.53,23.87Z"/><path class="cls-5" d="M35.36,23.26h0a.31.31,0,0,1-.09-.42l1.43-2.2a.3.3,0,0,1,.43-.09h0a.31.31,0,0,1,.09.42l-1.44,2.2A.31.31,0,0,1,35.36,23.26Z"/><path class="cls-5" d="M36.81,23.71a.72.72,0,0,1-.4-.12.79.79,0,0,1-.33-.47.76.76,0,0,1,.11-.57l.87-1.33a.75.75,0,0,1,.62-.34A.75.75,0,0,1,38.31,22l-.87,1.34A.75.75,0,0,1,36.81,23.71Z"/><path class="cls-5" d="M36.71,23.12h0a.19.19,0,0,1-.05-.26l.87-1.33a.18.18,0,0,1,.26-.06h0a.19.19,0,0,1,.05.26L37,23.06A.19.19,0,0,1,36.71,23.12Z"/><path class="cls-5" d="M27.31,24.32A.87.87,0,0,1,26.58,23l1.83-2.82a.87.87,0,0,1,.72-.39.92.92,0,0,1,.48.14.87.87,0,0,1,.25,1.2L28,23.92A.89.89,0,0,1,27.31,24.32Z"/><rect class="cls-5" x="27.91" y="20.06" width="0.61" height="3.97" rx="0.31" transform="translate(16.54 -11.81) rotate(32.97)"/><path class="cls-3" d="M16.88,21.06a3.63,3.63,0,0,1-2.57-6.2l3.79-3.8a3.63,3.63,0,0,1,6,3.85l1.29,1.65-3.31.83L19.45,20A3.64,3.64,0,0,1,16.88,21.06Z"/><path class="cls-3" d="M24.39,16.23l-1-1.23a3.09,3.09,0,0,0-.58-3.54h0a3.08,3.08,0,0,0-4.35,0l-3.8,3.79a3.08,3.08,0,0,0,0,4.35h0a3.08,3.08,0,0,0,4.35,0l2.72-2.71Z"/><text class="cls-6" transform="translate(15.87 19.48) rotate(-45)">wasabi</text><path class="cls-1" d="M32.73,27a1.46,1.46,0,0,1-1.46-1.45h1.12a.34.34,0,0,0,.34.33.8.8,0,0,0,.34-.41.28.28,0,0,0,0,.08h1.12A1.69,1.69,0,0,1,32.73,27Z"/><path class="cls-1" d="M33.62,25.5c0,.19-.4.89-.89.89a.89.89,0,0,1-.9-.89"/><path class="cls-7" d="M33.62,11.65s-1.09,3.63-7.09,6.18c0,0-1.64,2.36,0,3.82,0,0-3.46-.37-2.91,3.09L24,26.19s-2.36.55-1.81,3.82,4.36,4.73,6.36,4.54,4.54-1.09,6.36-.9,5.64,1.27,6.55.54,5.27-3.64.91-7.27c0,0,.91-4.37-2.37-5.27,0,0,0-4.19-3.45-5.64S33.62,11.65,33.62,11.65Z"/><path class="cls-8" d="M50.2,27.58a18,18,0,0,1-35.91,0Z"/><g class="cls-9"><rect class="cls-10" x="13.87" y="31.36" width="37.37" height="3.78"/><rect class="cls-10" x="14.04" y="38.62" width="37.37" height="3.78"/></g><path class="cls-2" d="M50.2,27.58a18,18,0,0,1-35.91,0Z"/><path class="cls-11" d="M26.05,47.94,20.8,44s-.42-2.52,2.1-1.26,4.65,4.52,4.65,4.52Z"/><path class="cls-11" d="M38,47.94l5.25-4s.42-2.52-2.1-1.26-4.65,4.52-4.65,4.52Z"/><path class="cls-12" d="M26.14,46.17l-4.29,6.6s.21.84,1.47.42a28.1,28.1,0,0,1,7.77-1.26c3.15,0,10.5,1.47,10.5,1.47s.84-.63.42-1-4.53-5.53-4.36-6.86-11-.7-11-.7Z"/><path class="cls-13" d="M31.83,30.2s-.42-2.1-1.68-1.26.84,2.94.84,2.94-7.56.84-8.82,8.4c0,0,.84,2.31,2.1,2.94s2.1,5.46,7.56,5.25a8.43,8.43,0,0,0,7.34-5s2.73-2.52,2.52-3.57-3.36-8-8.6-8.4c0,0,1.89-1.89.63-2.31S32.46,29.15,31.83,30.2Z"/><path class="cls-14" d="M31.93,38.71A9.27,9.27,0,0,1,36.55,37a2.71,2.71,0,0,1,2.73,2.1v4.61s-3.15,4.83-7.35,4.83c-5,0-7.35-5.25-7.35-5.25V39.13S25.63,37,27.1,37A11.71,11.71,0,0,1,31.93,38.71Z"/><path class="cls-1" d="M26.89,41.22a4,4,0,0,1,3.36,1.47"/><path class="cls-1" d="M36.55,41.22a4,4,0,0,0-3.36,1.47"/><path class="cls-13" d="M28.31,50.46v1.66s7.3,1.82,7.3.13c0-1-.11-2.42-.11-2.42H28.36Z"/><rect class="cls-13" x="22.96" y="49.41" width="18.06" height="1.05" rx="0.52"/><path class="cls-15" d="M24.39,19.17v1.45l.42.62S25.22,25,27.9,25a4.51,4.51,0,0,0,4.33-3.51s.42-.62.83-.2.62,4.12,4.33,3.71A3.29,3.29,0,0,0,40.48,21l.62-.21V19.58s-4.53-1.23-8,0H32S31.2,18.14,24.39,19.17Z"/><path class="cls-3" d="M25.88,20.13s3.38-.63,4.38,0,1.23,1.57.84,2.18-1.62,2.07-2.8,2a3,3,0,0,1-2.4-1.79A5.26,5.26,0,0,1,25.88,20.13Z"/><path class="cls-3" d="M39.48,20.36s-3.38-.64-4.38,0-1.23,1.56-.84,2.18,1.62,2.07,2.79,1.95a3,3,0,0,0,2.41-1.78A5.26,5.26,0,0,0,39.48,20.36Z"/><path class="cls-16" d="M26.47,22.93h0a.32.32,0,0,1-.09-.43l1.43-2.2a.32.32,0,0,1,.43-.09h0a.32.32,0,0,1,.09.43l-1.43,2.2A.32.32,0,0,1,26.47,22.93Z"/><path class="cls-16" d="M35.36,23.26h0a.31.31,0,0,1-.09-.42l1.43-2.2a.3.3,0,0,1,.43-.09h0a.31.31,0,0,1,.09.42l-1.44,2.2A.31.31,0,0,1,35.36,23.26Z"/><path class="cls-16" d="M36.71,23.12h0a.19.19,0,0,1-.05-.26l.87-1.33a.18.18,0,0,1,.26-.06h0a.19.19,0,0,1,.05.26L37,23.06A.19.19,0,0,1,36.71,23.12Z"/><rect class="cls-16" x="27.91" y="20.06" width="0.61" height="3.97" rx="0.31" transform="translate(16.54 -11.81) rotate(32.97)"/><path class="cls-17" d="M24.39,16.23l-1-1.23a3.09,3.09,0,0,0-.58-3.54h0a3.08,3.08,0,0,0-4.35,0l-3.8,3.79a3.08,3.08,0,0,0,0,4.35h0a3.08,3.08,0,0,0,4.35,0l2.72-2.71Z"/><text class="cls-6" transform="translate(15.87 19.48) rotate(-45)">wasabi</text><path class="cls-7" d="M33.62,11.65s-1.09,3.63-7.09,6.18c0,0-1.64,2.36,0,3.82,0,0-3.46-.37-2.91,3.09L24,26.19s-2.36.55-1.81,3.82,4.36,4.73,6.36,4.54,4.54-1.09,6.36-.9,5.64,1.27,6.55.54,5.27-3.64.91-7.27c0,0,.91-4.37-2.37-5.27,0,0,0-4.19-3.45-5.64S33.62,11.65,33.62,11.65Z"/><path class="cls-8" d="M50.2,27.58a18,18,0,0,1-35.91,0Z"/><g class="cls-9"><rect class="cls-10" x="13.87" y="31.36" width="37.37" height="3.78"/><rect class="cls-10" x="14.04" y="38.62" width="37.37" height="3.78"/></g><path class="cls-2" d="M50.2,27.58a18,18,0,0,1-35.91,0Z"/><path class="cls-11" d="M26.05,47.94,20.8,44s-.42-2.52,2.1-1.26,4.65,4.52,4.65,4.52Z"/><path class="cls-11" d="M38,47.94l5.25-4s.42-2.52-2.1-1.26-4.65,4.52-4.65,4.52Z"/><path class="cls-12" d="M26.14,46.17l-4.29,6.6s.21.84,1.47.42a28.1,28.1,0,0,1,7.77-1.26c3.15,0,10.5,1.47,10.5,1.47s.84-.63.42-1-4.53-5.53-4.36-6.86-11-.7-11-.7Z"/><path class="cls-13" d="M31.83,30.2s-.42-2.1-1.68-1.26.84,2.94.84,2.94-7.56.84-8.82,8.4c0,0,.84,2.31,2.1,2.94s2.1,5.46,7.56,5.25a8.43,8.43,0,0,0,7.34-5s2.73-2.52,2.52-3.57-3.36-8-8.6-8.4c0,0,1.89-1.89.63-2.31S32.46,29.15,31.83,30.2Z"/><path class="cls-14" d="M31.93,38.71A9.27,9.27,0,0,1,36.55,37a2.71,2.71,0,0,1,2.73,2.1v4.61s-3.15,4.83-7.35,4.83c-5,0-7.35-5.25-7.35-5.25V39.13S25.63,37,27.1,37A11.71,11.71,0,0,1,31.93,38.71Z"/><path class="cls-1" d="M26.89,41.22a4,4,0,0,1,3.36,1.47"/><path class="cls-1" d="M36.55,41.22a4,4,0,0,0-3.36,1.47"/><path class="cls-13" d="M28.31,50.46v1.66s7.3,1.82,7.3.13c0-1-.11-2.42-.11-2.42H28.36Z"/><rect class="cls-13" x="22.96" y="49.41" width="18.06" height="1.05" rx="0.52"/><path class="cls-15" d="M24.39,19.17v1.45l.42.62S25.22,25,27.9,25a4.51,4.51,0,0,0,4.33-3.51s.42-.62.83-.2.62,4.12,4.33,3.71A3.29,3.29,0,0,0,40.48,21l.62-.21V19.58s-4.53-1.23-8,0H32S31.2,18.14,24.39,19.17Z"/><path class="cls-3" d="M25.88,20.13s3.38-.63,4.38,0,1.23,1.57.84,2.18-1.62,2.07-2.8,2a3,3,0,0,1-2.4-1.79A5.26,5.26,0,0,1,25.88,20.13Z"/><path class="cls-3" d="M39.48,20.36s-3.38-.64-4.38,0-1.23,1.56-.84,2.18,1.62,2.07,2.79,1.95a3,3,0,0,0,2.41-1.78A5.26,5.26,0,0,0,39.48,20.36Z"/><path class="cls-16" d="M26.47,22.93h0a.32.32,0,0,1-.09-.43l1.43-2.2a.32.32,0,0,1,.43-.09h0a.32.32,0,0,1,.09.43l-1.43,2.2A.32.32,0,0,1,26.47,22.93Z"/><path class="cls-16" d="M35.36,23.26h0a.31.31,0,0,1-.09-.42l1.43-2.2a.3.3,0,0,1,.43-.09h0a.31.31,0,0,1,.09.42l-1.44,2.2A.31.31,0,0,1,35.36,23.26Z"/><path class="cls-16" d="M36.71,23.12h0a.19.19,0,0,1-.05-.26l.87-1.33a.18.18,0,0,1,.26-.06h0a.19.19,0,0,1,.05.26L37,23.06A.19.19,0,0,1,36.71,23.12Z"/><rect class="cls-16" x="27.91" y="20.06" width="0.61" height="3.97" rx="0.31" transform="translate(16.54 -11.81) rotate(32.97)"/><path class="cls-17" d="M24.39,16.23l-1-1.23a3.09,3.09,0,0,0-.58-3.54h0a3.08,3.08,0,0,0-4.35,0l-3.8,3.79a3.08,3.08,0,0,0,0,4.35h0a3.08,3.08,0,0,0,4.35,0l2.72-2.71Z"/><text class="cls-6" transform="translate(15.87 19.48) rotate(-45)">wasabi</text><path class="cls-7" d="M33.62,11.65s-1.09,3.63-7.09,6.18c0,0-1.64,2.36,0,3.82,0,0-3.46-.37-2.91,3.09L24,26.19s-2.36.55-1.81,3.82,4.36,4.73,6.36,4.54,4.54-1.09,6.36-.9,5.64,1.27,6.55.54,5.27-3.64.91-7.27c0,0,.91-4.37-2.37-5.27,0,0,0-4.19-3.45-5.64S33.62,11.65,33.62,11.65Z"/><path class="cls-8" d="M50.2,27.58a18,18,0,0,1-35.91,0Z"/><g class="cls-9"><rect class="cls-10" x="13.87" y="31.36" width="37.37" height="3.78"/><rect class="cls-10" x="14.04" y="38.62" width="37.37" height="3.78"/></g><path class="cls-2" d="M50.2,27.58a18,18,0,0,1-35.91,0Z"/><path class="cls-11" d="M26.05,47.94,20.8,44s-.42-2.52,2.1-1.26,4.65,4.52,4.65,4.52Z"/><path class="cls-11" d="M38,47.94l5.25-4s.42-2.52-2.1-1.26-4.65,4.52-4.65,4.52Z"/><path class="cls-12" d="M26.14,46.17l-4.29,6.6s.21.84,1.47.42a28.1,28.1,0,0,1,7.77-1.26c3.15,0,10.5,1.47,10.5,1.47s.84-.63.42-1-4.53-5.53-4.36-6.86-11-.7-11-.7Z"/><path class="cls-13" d="M31.83,30.2s-.42-2.1-1.68-1.26.84,2.94.84,2.94-7.56.84-8.82,8.4c0,0,.84,2.31,2.1,2.94s2.1,5.46,7.56,5.25a8.43,8.43,0,0,0,7.34-5s2.73-2.52,2.52-3.57-3.36-8-8.6-8.4c0,0,1.89-1.89.63-2.31S32.46,29.15,31.83,30.2Z"/><path class="cls-14" d="M31.93,38.71A9.27,9.27,0,0,1,36.55,37a2.71,2.71,0,0,1,2.73,2.1v4.61s-3.15,4.83-7.35,4.83c-5,0-7.35-5.25-7.35-5.25V39.13S25.63,37,27.1,37A11.71,11.71,0,0,1,31.93,38.71Z"/><path class="cls-1" d="M26.89,41.22a4,4,0,0,1,3.36,1.47"/><path class="cls-1" d="M36.55,41.22a4,4,0,0,0-3.36,1.47"/><path class="cls-13" d="M28.31,50.46v1.66s7.3,1.82,7.3.13c0-1-.11-2.42-.11-2.42H28.36Z"/><rect class="cls-13" x="22.96" y="49.41" width="18.06" height="1.05" rx="0.52"/><path class="cls-15" d="M24.39,19.17v1.45l.42.62S25.22,25,27.9,25a4.51,4.51,0,0,0,4.33-3.51s.42-.62.83-.2.62,4.12,4.33,3.71A3.29,3.29,0,0,0,40.48,21l.62-.21V19.58s-4.53-1.23-8,0H32S31.2,18.14,24.39,19.17Z"/><path class="cls-3" d="M25.88,20.13s3.38-.63,4.38,0,1.23,1.57.84,2.18-1.62,2.07-2.8,2a3,3,0,0,1-2.4-1.79A5.26,5.26,0,0,1,25.88,20.13Z"/><path class="cls-3" d="M39.48,20.36s-3.38-.64-4.38,0-1.23,1.56-.84,2.18,1.62,2.07,2.79,1.95a3,3,0,0,0,2.41-1.78A5.26,5.26,0,0,0,39.48,20.36Z"/><path class="cls-16" d="M26.47,22.93h0a.32.32,0,0,1-.09-.43l1.43-2.2a.32.32,0,0,1,.43-.09h0a.32.32,0,0,1,.09.43l-1.43,2.2A.32.32,0,0,1,26.47,22.93Z"/><path class="cls-16" d="M35.36,23.26h0a.31.31,0,0,1-.09-.42l1.43-2.2a.3.3,0,0,1,.43-.09h0a.31.31,0,0,1,.09.42l-1.44,2.2A.31.31,0,0,1,35.36,23.26Z"/><path class="cls-16" d="M36.71,23.12h0a.19.19,0,0,1-.05-.26l.87-1.33a.18.18,0,0,1,.26-.06h0a.19.19,0,0,1,.05.26L37,23.06A.19.19,0,0,1,36.71,23.12Z"/><rect class="cls-16" x="27.91" y="20.06" width="0.61" height="3.97" rx="0.31" transform="translate(16.54 -11.81) rotate(32.97)"/><path class="cls-17" d="M24.39,16.23l-1-1.23a3.09,3.09,0,0,0-.58-3.54h0a3.08,3.08,0,0,0-4.35,0l-3.8,3.79a3.08,3.08,0,0,0,0,4.35h0a3.08,3.08,0,0,0,4.35,0l2.72-2.71Z"/><text class="cls-6" transform="translate(15.87 19.48) rotate(-45)">wasabi</text><path class="cls-2" d="M33.62,25.5c0,.19-.4.89-.89.89a.89.89,0,0,1-.9-.89"/></svg>